<svg width="450" height="454" viewBox="0 0 450 454" fill="none" xmlns="http://www.w3.org/2000/svg">
<g filter="url(#filter0_d_63_2667)">
<rect x="40" y="10" width="350" height="354" rx="20" fill="white"/>
</g>
<path d="M79.848 196.32H91.272V198.768H82.872V203.496H90.768V205.944H82.872V210.96H91.272V213.408H79.848V196.32ZM108.209 200.976C109.585 200.976 110.609 201.392 111.281 202.224C111.953 203.04 112.289 204.288 112.289 205.968V213.408H109.289V206.064C109.289 205.104 109.129 204.416 108.809 204C108.505 203.568 107.993 203.352 107.273 203.352C106.441 203.352 105.785 203.648 105.305 204.24C104.841 204.816 104.609 205.616 104.609 206.64V213.408H101.609V206.064C101.609 205.12 101.441 204.432 101.105 204C100.785 203.568 100.273 203.352 99.5694 203.352C98.7374 203.352 98.0814 203.648 97.6014 204.24C97.1214 204.816 96.8814 205.616 96.8814 206.64V213.408H93.9054V204.72C93.9054 203.44 93.8414 202.296 93.7134 201.288H96.5214L96.7374 203.208C97.0894 202.488 97.5934 201.936 98.2494 201.552C98.9214 201.168 99.6894 200.976 100.553 200.976C102.409 200.976 103.617 201.744 104.177 203.28C104.561 202.56 105.105 202 105.809 201.6C106.529 201.184 107.329 200.976 108.209 200.976ZM126.099 207.504H117.747C117.811 208.8 118.131 209.76 118.707 210.384C119.299 210.992 120.171 211.296 121.323 211.296C122.651 211.296 123.883 210.864 125.019 210L125.883 212.064C125.307 212.528 124.595 212.904 123.747 213.192C122.915 213.464 122.067 213.6 121.203 213.6C119.219 213.6 117.659 213.04 116.523 211.92C115.387 210.8 114.819 209.264 114.819 207.312C114.819 206.08 115.067 204.984 115.563 204.024C116.059 203.064 116.755 202.32 117.651 201.792C118.547 201.248 119.563 200.976 120.699 200.976C122.363 200.976 123.675 201.52 124.635 202.608C125.611 203.68 126.099 205.16 126.099 207.048V207.504ZM120.771 203.136C119.971 203.136 119.315 203.376 118.803 203.856C118.307 204.32 117.987 205 117.843 205.896H123.483C123.387 204.984 123.107 204.296 122.643 203.832C122.195 203.368 121.571 203.136 120.771 203.136ZM135.168 201C135.632 201 136.032 201.064 136.368 201.192L136.344 203.928C135.832 203.72 135.304 203.616 134.76 203.616C133.736 203.616 132.952 203.912 132.408 204.504C131.88 205.096 131.616 205.88 131.616 206.856V213.408H128.64V204.72C128.64 203.44 128.576 202.296 128.448 201.288H131.256L131.496 203.424C131.8 202.64 132.28 202.04 132.936 201.624C133.592 201.208 134.336 201 135.168 201ZM149.516 201.288V213.024C149.516 214.912 148.996 216.344 147.956 217.32C146.916 218.296 145.388 218.784 143.372 218.784C141.5 218.784 139.852 218.392 138.428 217.608L138.908 215.328C140.38 216.096 141.844 216.48 143.3 216.48C145.46 216.48 146.54 215.408 146.54 213.264V210.864C146.172 211.52 145.636 212.056 144.932 212.472C144.228 212.872 143.436 213.072 142.556 213.072C141.5 213.072 140.556 212.824 139.724 212.328C138.908 211.816 138.268 211.104 137.804 210.192C137.356 209.264 137.132 208.208 137.132 207.024C137.132 205.84 137.356 204.792 137.804 203.88C138.268 202.952 138.908 202.24 139.724 201.744C140.556 201.232 141.5 200.976 142.556 200.976C143.452 200.976 144.244 201.168 144.932 201.552C145.636 201.92 146.172 202.44 146.54 203.112V201.288H149.516ZM143.348 210.72C144.34 210.72 145.116 210.392 145.676 209.736C146.252 209.08 146.54 208.176 146.54 207.024C146.54 205.872 146.26 204.968 145.7 204.312C145.14 203.656 144.356 203.328 143.348 203.328C142.356 203.328 141.572 203.656 140.996 204.312C140.436 204.968 140.156 205.872 140.156 207.024C140.156 208.176 140.436 209.08 140.996 209.736C141.572 210.392 142.356 210.72 143.348 210.72ZM163.365 207.504H155.013C155.077 208.8 155.397 209.76 155.973 210.384C156.565 210.992 157.437 211.296 158.589 211.296C159.917 211.296 161.149 210.864 162.285 210L163.149 212.064C162.573 212.528 161.861 212.904 161.013 213.192C160.181 213.464 159.333 213.6 158.469 213.6C156.485 213.6 154.925 213.04 153.789 211.92C152.653 210.8 152.085 209.264 152.085 207.312C152.085 206.08 152.333 204.984 152.829 204.024C153.325 203.064 154.021 202.32 154.917 201.792C155.813 201.248 156.829 200.976 157.965 200.976C159.629 200.976 160.941 201.52 161.901 202.608C162.877 203.68 163.365 205.16 163.365 207.048V207.504ZM158.037 203.136C157.237 203.136 156.581 203.376 156.069 203.856C155.573 204.32 155.253 205 155.109 205.896H160.749C160.653 204.984 160.373 204.296 159.909 203.832C159.461 203.368 158.837 203.136 158.037 203.136ZM172.841 200.976C175.737 200.976 177.185 202.64 177.185 205.968V213.408H174.185V206.112C174.185 205.152 174.001 204.456 173.633 204.024C173.265 203.576 172.697 203.352 171.929 203.352C171.017 203.352 170.281 203.648 169.721 204.24C169.161 204.816 168.881 205.584 168.881 206.544V213.408H165.905V204.72C165.905 203.44 165.841 202.296 165.713 201.288H168.521L168.737 203.28C169.153 202.544 169.713 201.976 170.417 201.576C171.137 201.176 171.945 200.976 172.841 200.976ZM185.862 213.6C184.598 213.6 183.502 213.344 182.574 212.832C181.646 212.32 180.934 211.6 180.438 210.672C179.942 209.728 179.694 208.624 179.694 207.36C179.694 206.096 179.95 204.984 180.462 204.024C180.99 203.064 181.726 202.32 182.67 201.792C183.63 201.248 184.734 200.976 185.982 200.976C186.846 200.976 187.678 201.112 188.478 201.384C189.294 201.656 189.942 202.032 190.422 202.512L189.582 204.624C189.07 204.208 188.526 203.896 187.95 203.688C187.374 203.464 186.806 203.352 186.246 203.352C185.158 203.352 184.31 203.696 183.702 204.384C183.094 205.056 182.79 206.032 182.79 207.312C182.79 208.592 183.086 209.568 183.678 210.24C184.286 210.912 185.142 211.248 186.246 211.248C186.806 211.248 187.374 211.136 187.95 210.912C188.526 210.688 189.07 210.368 189.582 209.952L190.422 212.064C189.91 212.544 189.246 212.92 188.43 213.192C187.614 213.464 186.758 213.6 185.862 213.6ZM203.909 201.288L198.269 214.224C197.629 215.728 196.813 216.824 195.821 217.512C194.829 218.2 193.605 218.656 192.149 218.88L191.477 216.576C192.613 216.32 193.461 215.992 194.021 215.592C194.597 215.208 195.061 214.632 195.413 213.864L195.797 212.976L190.757 201.288H193.901L197.381 210L200.933 201.288H203.909ZM217.55 213.6C216.286 213.6 215.19 213.344 214.262 212.832C213.334 212.32 212.622 211.6 212.126 210.672C211.63 209.728 211.382 208.624 211.382 207.36C211.382 206.096 211.638 204.984 212.15 204.024C212.678 203.064 213.414 202.32 214.358 201.792C215.318 201.248 216.422 200.976 217.67 200.976C218.534 200.976 219.366 201.112 220.166 201.384C220.982 201.656 221.63 202.032 222.11 202.512L221.27 204.624C220.758 204.208 220.214 203.896 219.638 203.688C219.062 203.464 218.494 203.352 217.934 203.352C216.846 203.352 215.998 203.696 215.39 204.384C214.782 205.056 214.478 206.032 214.478 207.312C214.478 208.592 214.774 209.568 215.366 210.24C215.974 210.912 216.83 211.248 217.934 211.248C218.494 211.248 219.062 211.136 219.638 210.912C220.214 210.688 220.758 210.368 221.27 209.952L222.11 212.064C221.598 212.544 220.934 212.92 220.118 213.192C219.302 213.464 218.446 213.6 217.55 213.6ZM235.716 201.288V213.408H232.764V211.464C232.396 212.136 231.868 212.664 231.18 213.048C230.492 213.416 229.708 213.6 228.828 213.6C227.772 213.6 226.836 213.344 226.02 212.832C225.204 212.32 224.572 211.592 224.124 210.648C223.676 209.704 223.452 208.608 223.452 207.36C223.452 206.112 223.676 205.008 224.124 204.048C224.588 203.072 225.228 202.32 226.044 201.792C226.86 201.248 227.788 200.976 228.828 200.976C229.708 200.976 230.492 201.168 231.18 201.552C231.868 201.92 232.396 202.44 232.764 203.112V201.288H235.716ZM229.644 211.248C230.636 211.248 231.404 210.904 231.948 210.216C232.492 209.528 232.764 208.56 232.764 207.312C232.764 206.032 232.492 205.048 231.948 204.36C231.404 203.672 230.628 203.328 229.62 203.328C228.628 203.328 227.852 203.688 227.292 204.408C226.748 205.112 226.476 206.096 226.476 207.36C226.476 208.608 226.748 209.568 227.292 210.24C227.852 210.912 228.636 211.248 229.644 211.248ZM245.512 201C245.976 201 246.376 201.064 246.712 201.192L246.688 203.928C246.176 203.72 245.648 203.616 245.104 203.616C244.08 203.616 243.296 203.912 242.752 204.504C242.224 205.096 241.96 205.88 241.96 206.856V213.408H238.984V204.72C238.984 203.44 238.92 202.296 238.792 201.288H241.6L241.84 203.424C242.144 202.64 242.624 202.04 243.28 201.624C243.936 201.208 244.68 201 245.512 201ZM258.756 207.504H250.404C250.468 208.8 250.788 209.76 251.364 210.384C251.956 210.992 252.828 211.296 253.98 211.296C255.308 211.296 256.54 210.864 257.676 210L258.54 212.064C257.964 212.528 257.252 212.904 256.404 213.192C255.572 213.464 254.724 213.6 253.86 213.6C251.876 213.6 250.316 213.04 249.18 211.92C248.044 210.8 247.476 209.264 247.476 207.312C247.476 206.08 247.724 204.984 248.22 204.024C248.716 203.064 249.412 202.32 250.308 201.792C251.204 201.248 252.22 200.976 253.356 200.976C255.02 200.976 256.332 201.52 257.292 202.608C258.268 203.68 258.756 205.16 258.756 207.048V207.504ZM253.428 203.136C252.628 203.136 251.972 203.376 251.46 203.856C250.964 204.32 250.644 205 250.5 205.896H256.14C256.044 204.984 255.764 204.296 255.3 203.832C254.852 203.368 254.228 203.136 253.428 203.136Z" fill="black"/>
<path d="M84.264 248.72V253.408H83.272V248.688L78.872 242.016H80.024L83.784 247.824L87.544 242.016H88.664L84.264 248.72ZM91.8401 253.52C91.1041 253.52 90.4535 253.349 89.8881 253.008C89.3335 252.666 88.9015 252.181 88.5921 251.552C88.2935 250.922 88.1441 250.192 88.1441 249.36C88.1441 248.528 88.2935 247.797 88.5921 247.168C88.9015 246.538 89.3335 246.053 89.8881 245.712C90.4535 245.37 91.1041 245.2 91.8401 245.2C92.5655 245.2 93.2055 245.37 93.7601 245.712C94.3148 246.053 94.7415 246.538 95.0401 247.168C95.3495 247.797 95.5041 248.528 95.5041 249.36C95.5041 250.192 95.3495 250.922 95.0401 251.552C94.7415 252.181 94.3148 252.666 93.7601 253.008C93.2055 253.349 92.5655 253.52 91.8401 253.52ZM91.8241 252.656C92.6775 252.656 93.3335 252.373 93.7921 251.808C94.2615 251.232 94.4961 250.416 94.4961 249.36C94.4961 248.314 94.2615 247.504 93.7921 246.928C93.3228 246.341 92.6721 246.048 91.8401 246.048C90.9975 246.048 90.3415 246.341 89.8721 246.928C89.4028 247.504 89.1681 248.314 89.1681 249.36C89.1681 250.426 89.3975 251.242 89.8561 251.808C90.3148 252.373 90.9708 252.656 91.8241 252.656ZM104.089 245.392V253.408H103.145V251.952C102.889 252.464 102.526 252.853 102.057 253.12C101.587 253.386 101.049 253.52 100.441 253.52C99.5018 253.52 98.7925 253.258 98.3125 252.736C97.8325 252.213 97.5925 251.44 97.5925 250.416V245.392H98.5525V250.352C98.5525 251.141 98.7125 251.722 99.0325 252.096C99.3525 252.469 99.8485 252.656 100.521 252.656C101.31 252.656 101.939 252.41 102.409 251.92C102.878 251.418 103.113 250.757 103.113 249.936V245.392H104.089ZM114.076 253.52C113.319 253.52 112.657 253.349 112.092 253.008C111.527 252.666 111.089 252.186 110.78 251.568C110.471 250.938 110.316 250.213 110.316 249.392C110.316 248.56 110.471 247.829 110.78 247.2C111.089 246.56 111.532 246.069 112.108 245.728C112.684 245.376 113.351 245.2 114.108 245.2C114.652 245.2 115.169 245.296 115.66 245.488C116.161 245.669 116.572 245.925 116.892 246.256L116.508 247.024C116.092 246.682 115.692 246.437 115.308 246.288C114.935 246.128 114.545 246.048 114.14 246.048C113.276 246.048 112.593 246.346 112.092 246.944C111.591 247.53 111.34 248.346 111.34 249.392C111.34 250.416 111.585 251.216 112.076 251.792C112.577 252.368 113.265 252.656 114.14 252.656C114.545 252.656 114.935 252.581 115.308 252.432C115.692 252.272 116.092 252.026 116.508 251.696L116.892 252.448C116.551 252.778 116.124 253.04 115.612 253.232C115.111 253.424 114.599 253.52 114.076 253.52ZM125.472 245.392V253.408H124.496V251.872C124.261 252.405 123.904 252.816 123.424 253.104C122.954 253.381 122.389 253.52 121.728 253.52C121.013 253.52 120.384 253.354 119.84 253.024C119.306 252.682 118.89 252.202 118.592 251.584C118.304 250.954 118.16 250.224 118.16 249.392C118.16 248.56 118.309 247.829 118.608 247.2C118.906 246.56 119.322 246.069 119.856 245.728C120.4 245.376 121.024 245.2 121.728 245.2C122.378 245.2 122.938 245.338 123.408 245.616C123.888 245.893 124.25 246.298 124.496 246.832V245.392H125.472ZM121.872 252.656C122.704 252.656 123.349 252.368 123.808 251.792C124.266 251.216 124.496 250.405 124.496 249.36C124.496 248.304 124.266 247.488 123.808 246.912C123.349 246.336 122.698 246.048 121.856 246.048C121.013 246.048 120.357 246.346 119.888 246.944C119.418 247.53 119.184 248.346 119.184 249.392C119.184 250.426 119.418 251.232 119.888 251.808C120.357 252.373 121.018 252.656 121.872 252.656ZM131.853 245.2C133.784 245.2 134.749 246.234 134.749 248.304V253.408H133.773V248.368C133.773 247.568 133.608 246.981 133.277 246.608C132.957 246.234 132.45 246.048 131.757 246.048C130.957 246.048 130.312 246.293 129.821 246.784C129.33 247.274 129.085 247.936 129.085 248.768V253.408H128.125V247.616C128.125 246.784 128.082 246.042 127.997 245.392H128.925L129.053 246.864C129.298 246.32 129.666 245.909 130.157 245.632C130.648 245.344 131.213 245.2 131.853 245.2ZM148.317 245.392V253.44C148.317 254.602 148.029 255.482 147.453 256.08C146.877 256.677 146.029 256.976 144.909 256.976C143.714 256.976 142.674 256.688 141.789 256.112L141.981 255.264C142.504 255.573 142.984 255.792 143.421 255.92C143.858 256.048 144.36 256.112 144.925 256.112C145.725 256.112 146.328 255.893 146.733 255.456C147.149 255.018 147.357 254.378 147.357 253.536V251.472C147.112 252.016 146.749 252.437 146.269 252.736C145.789 253.024 145.213 253.168 144.541 253.168C143.837 253.168 143.213 253.002 142.669 252.672C142.125 252.33 141.698 251.861 141.389 251.264C141.09 250.656 140.941 249.962 140.941 249.184C140.941 248.394 141.09 247.701 141.389 247.104C141.698 246.496 142.125 246.026 142.669 245.696C143.213 245.365 143.837 245.2 144.541 245.2C145.213 245.2 145.784 245.338 146.253 245.616C146.733 245.893 147.096 246.298 147.341 246.832V245.392H148.317ZM144.669 252.288C145.501 252.288 146.152 252.01 146.621 251.456C147.101 250.901 147.341 250.144 147.341 249.184C147.341 248.213 147.101 247.45 146.621 246.896C146.152 246.33 145.501 246.048 144.669 246.048C143.826 246.048 143.165 246.33 142.685 246.896C142.205 247.45 141.965 248.213 141.965 249.184C141.965 250.154 142.205 250.917 142.685 251.472C143.165 252.016 143.826 252.288 144.669 252.288ZM151.481 249.28V249.328C151.481 250.405 151.726 251.232 152.217 251.808C152.718 252.373 153.443 252.656 154.393 252.656C155.353 252.656 156.233 252.325 157.033 251.664L157.417 252.432C157.065 252.762 156.617 253.029 156.073 253.232C155.529 253.424 154.969 253.52 154.393 253.52C153.177 253.52 152.217 253.152 151.513 252.416C150.809 251.68 150.457 250.666 150.457 249.376C150.457 248.554 150.611 247.829 150.921 247.2C151.241 246.56 151.683 246.069 152.249 245.728C152.814 245.376 153.465 245.2 154.201 245.2C155.257 245.2 156.078 245.541 156.665 246.224C157.262 246.906 157.561 247.856 157.561 249.072V249.28H151.481ZM154.201 246C153.465 246 152.867 246.224 152.409 246.672C151.95 247.109 151.662 247.728 151.545 248.528H156.633C156.569 247.706 156.329 247.082 155.913 246.656C155.497 246.218 154.926 246 154.201 246ZM161.001 246.176V250.944C161.001 251.584 161.123 252.026 161.369 252.272C161.614 252.517 161.977 252.64 162.457 252.64C162.755 252.64 163.043 252.592 163.321 252.496V253.376C162.979 253.461 162.633 253.504 162.281 253.504C161.577 253.504 161.022 253.306 160.617 252.912C160.222 252.517 160.025 251.925 160.025 251.136V246.176H158.441V245.392H160.025V243.264L161.001 242.896V245.392H163.369V246.176H161.001ZM176.373 252.544V253.408H169.189V252.672L173.237 248.144C173.813 247.482 174.229 246.901 174.485 246.4C174.741 245.888 174.869 245.381 174.869 244.88C174.869 244.197 174.672 243.674 174.277 243.312C173.893 242.938 173.339 242.752 172.613 242.752C171.493 242.752 170.4 243.21 169.333 244.128L168.917 243.344C169.365 242.906 169.925 242.554 170.597 242.288C171.269 242.021 171.941 241.888 172.613 241.888C173.627 241.888 174.421 242.154 174.997 242.688C175.584 243.21 175.877 243.925 175.877 244.832C175.877 245.482 175.723 246.117 175.413 246.736C175.115 247.354 174.624 248.042 173.941 248.8L170.517 252.544H176.373ZM186.367 250.816H184.607V253.408H183.615V250.816H178.223V250.064L183.791 242.016H184.607V249.968H186.367V250.816ZM183.615 249.968V243.776L179.327 249.968H183.615ZM186.617 254.272L190.697 241.44H191.673L187.577 254.272H186.617ZM199.792 242.016V242.752L194.384 253.408H193.312L198.688 242.88H192.464V242.016H199.792ZM212.776 245.392V253.408H211.832V251.952C211.576 252.464 211.213 252.853 210.744 253.12C210.275 253.386 209.736 253.52 209.128 253.52C208.189 253.52 207.48 253.258 207 252.736C206.52 252.213 206.28 251.44 206.28 250.416V245.392H207.24V250.352C207.24 251.141 207.4 251.722 207.72 252.096C208.04 252.469 208.536 252.656 209.208 252.656C209.997 252.656 210.627 252.41 211.096 251.92C211.565 251.418 211.8 250.757 211.8 249.936V245.392H212.776ZM218.893 245.2C219.16 245.2 219.395 245.221 219.597 245.264L219.549 246.144C219.347 246.101 219.101 246.08 218.813 246.08C218.003 246.08 217.395 246.341 216.989 246.864C216.595 247.376 216.397 247.989 216.397 248.704V253.408H215.437V247.616C215.437 246.784 215.395 246.042 215.309 245.392H216.237L216.365 246.88C216.568 246.336 216.893 245.92 217.341 245.632C217.8 245.344 218.317 245.2 218.893 245.2ZM227.723 245.392V253.44C227.723 254.602 227.435 255.482 226.859 256.08C226.283 256.677 225.435 256.976 224.315 256.976C223.121 256.976 222.081 256.688 221.195 256.112L221.387 255.264C221.91 255.573 222.39 255.792 222.827 255.92C223.265 256.048 223.766 256.112 224.331 256.112C225.131 256.112 225.734 255.893 226.139 255.456C226.555 255.018 226.763 254.378 226.763 253.536V251.472C226.518 252.016 226.155 252.437 225.675 252.736C225.195 253.024 224.619 253.168 223.947 253.168C223.243 253.168 222.619 253.002 222.075 252.672C221.531 252.33 221.105 251.861 220.795 251.264C220.497 250.656 220.347 249.962 220.347 249.184C220.347 248.394 220.497 247.701 220.795 247.104C221.105 246.496 221.531 246.026 222.075 245.696C222.619 245.365 223.243 245.2 223.947 245.2C224.619 245.2 225.19 245.338 225.659 245.616C226.139 245.893 226.502 246.298 226.747 246.832V245.392H227.723ZM224.075 252.288C224.907 252.288 225.558 252.01 226.027 251.456C226.507 250.901 226.747 250.144 226.747 249.184C226.747 248.213 226.507 247.45 226.027 246.896C225.558 246.33 224.907 246.048 224.075 246.048C223.233 246.048 222.571 246.33 222.091 246.896C221.611 247.45 221.371 248.213 221.371 249.184C221.371 250.154 221.611 250.917 222.091 251.472C222.571 252.016 223.233 252.288 224.075 252.288ZM230.887 249.28V249.328C230.887 250.405 231.132 251.232 231.623 251.808C232.124 252.373 232.85 252.656 233.799 252.656C234.759 252.656 235.639 252.325 236.439 251.664L236.823 252.432C236.471 252.762 236.023 253.029 235.479 253.232C234.935 253.424 234.375 253.52 233.799 253.52C232.583 253.52 231.623 253.152 230.919 252.416C230.215 251.68 229.863 250.666 229.863 249.376C229.863 248.554 230.018 247.829 230.327 247.2C230.647 246.56 231.09 246.069 231.655 245.728C232.22 245.376 232.871 245.2 233.607 245.2C234.663 245.2 235.484 245.541 236.071 246.224C236.668 246.906 236.967 247.856 236.967 249.072V249.28H230.887ZM233.607 246C232.871 246 232.274 246.224 231.815 246.672C231.356 247.109 231.068 247.728 230.951 248.528H236.039C235.975 247.706 235.735 247.082 235.319 246.656C234.903 246.218 234.332 246 233.607 246ZM242.79 245.2C244.721 245.2 245.686 246.234 245.686 248.304V253.408H244.71V248.368C244.71 247.568 244.545 246.981 244.214 246.608C243.894 246.234 243.388 246.048 242.694 246.048C241.894 246.048 241.249 246.293 240.758 246.784C240.268 247.274 240.022 247.936 240.022 248.768V253.408H239.062V247.616C239.062 246.784 239.02 246.042 238.934 245.392H239.862L239.99 246.864C240.236 246.32 240.604 245.909 241.094 245.632C241.585 245.344 242.15 245.2 242.79 245.2ZM249.672 246.176V250.944C249.672 251.584 249.795 252.026 250.04 252.272C250.286 252.517 250.648 252.64 251.128 252.64C251.427 252.64 251.715 252.592 251.992 252.496V253.376C251.651 253.461 251.304 253.504 250.952 253.504C250.248 253.504 249.694 253.306 249.288 252.912C248.894 252.517 248.696 251.925 248.696 251.136V246.176H247.112V245.392H248.696V243.264L249.672 242.896V245.392H252.04V246.176H249.672ZM261.029 253.52C260.272 253.52 259.61 253.349 259.045 253.008C258.48 252.666 258.042 252.186 257.733 251.568C257.424 250.938 257.269 250.213 257.269 249.392C257.269 248.56 257.424 247.829 257.733 247.2C258.042 246.56 258.485 246.069 259.061 245.728C259.637 245.376 260.304 245.2 261.061 245.2C261.605 245.2 262.122 245.296 262.613 245.488C263.114 245.669 263.525 245.925 263.845 246.256L263.461 247.024C263.045 246.682 262.645 246.437 262.261 246.288C261.888 246.128 261.498 246.048 261.093 246.048C260.229 246.048 259.546 246.346 259.045 246.944C258.544 247.53 258.293 248.346 258.293 249.392C258.293 250.416 258.538 251.216 259.029 251.792C259.53 252.368 260.218 252.656 261.093 252.656C261.498 252.656 261.888 252.581 262.261 252.432C262.645 252.272 263.045 252.026 263.461 251.696L263.845 252.448C263.504 252.778 263.077 253.04 262.565 253.232C262.064 253.424 261.552 253.52 261.029 253.52ZM272.425 245.392V253.408H271.449V251.872C271.214 252.405 270.857 252.816 270.377 253.104C269.908 253.381 269.342 253.52 268.681 253.52C267.966 253.52 267.337 253.354 266.793 253.024C266.26 252.682 265.844 252.202 265.545 251.584C265.257 250.954 265.113 250.224 265.113 249.392C265.113 248.56 265.262 247.829 265.561 247.2C265.86 246.56 266.276 246.069 266.809 245.728C267.353 245.376 267.977 245.2 268.681 245.2C269.332 245.2 269.892 245.338 270.361 245.616C270.841 245.893 271.204 246.298 271.449 246.832V245.392H272.425ZM268.825 252.656C269.657 252.656 270.302 252.368 270.761 251.792C271.22 251.216 271.449 250.405 271.449 249.36C271.449 248.304 271.22 247.488 270.761 246.912C270.302 246.336 269.652 246.048 268.809 246.048C267.966 246.048 267.31 246.346 266.841 246.944C266.372 247.53 266.137 248.346 266.137 249.392C266.137 250.426 266.372 251.232 266.841 251.808C267.31 252.373 267.972 252.656 268.825 252.656ZM278.534 245.2C278.801 245.2 279.035 245.221 279.238 245.264L279.19 246.144C278.987 246.101 278.742 246.08 278.454 246.08C277.643 246.08 277.035 246.341 276.63 246.864C276.235 247.376 276.038 247.989 276.038 248.704V253.408H275.078V247.616C275.078 246.784 275.035 246.042 274.95 245.392H275.878L276.006 246.88C276.209 246.336 276.534 245.92 276.982 245.632C277.441 245.344 277.958 245.2 278.534 245.2ZM281.012 249.28V249.328C281.012 250.405 281.257 251.232 281.748 251.808C282.249 252.373 282.975 252.656 283.924 252.656C284.884 252.656 285.764 252.325 286.564 251.664L286.948 252.432C286.596 252.762 286.148 253.029 285.604 253.232C285.06 253.424 284.5 253.52 283.924 253.52C282.708 253.52 281.748 253.152 281.044 252.416C280.34 251.68 279.988 250.666 279.988 249.376C279.988 248.554 280.143 247.829 280.452 247.2C280.772 246.56 281.215 246.069 281.78 245.728C282.345 245.376 282.996 245.2 283.732 245.2C284.788 245.2 285.609 245.541 286.196 246.224C286.793 246.906 287.092 247.856 287.092 249.072V249.28H281.012ZM283.732 246C282.996 246 282.399 246.224 281.94 246.672C281.481 247.109 281.193 247.728 281.076 248.528H286.164C286.1 247.706 285.86 247.082 285.444 246.656C285.028 246.218 284.457 246 283.732 246ZM296.034 242.448C295.575 242.448 295.223 242.57 294.978 242.816C294.732 243.061 294.61 243.498 294.61 244.128V245.392H296.674V246.176H294.61V253.408H293.634V246.176H292.066V245.392H293.634V243.952C293.634 243.152 293.831 242.554 294.226 242.16C294.62 241.765 295.164 241.568 295.858 241.568C296.178 241.568 296.508 241.61 296.85 241.696V242.576C296.562 242.49 296.29 242.448 296.034 242.448ZM301.559 253.52C300.823 253.52 300.172 253.349 299.607 253.008C299.052 252.666 298.62 252.181 298.311 251.552C298.012 250.922 297.863 250.192 297.863 249.36C297.863 248.528 298.012 247.797 298.311 247.168C298.62 246.538 299.052 246.053 299.607 245.712C300.172 245.37 300.823 245.2 301.559 245.2C302.284 245.2 302.924 245.37 303.479 245.712C304.034 246.053 304.46 246.538 304.759 247.168C305.068 247.797 305.223 248.528 305.223 249.36C305.223 250.192 305.068 250.922 304.759 251.552C304.46 252.181 304.034 252.666 303.479 253.008C302.924 253.349 302.284 253.52 301.559 253.52ZM301.543 252.656C302.396 252.656 303.052 252.373 303.511 251.808C303.98 251.232 304.215 250.416 304.215 249.36C304.215 248.314 303.98 247.504 303.511 246.928C303.042 246.341 302.391 246.048 301.559 246.048C300.716 246.048 300.06 246.341 299.591 246.928C299.122 247.504 298.887 248.314 298.887 249.36C298.887 250.426 299.116 251.242 299.575 251.808C300.034 252.373 300.69 252.656 301.543 252.656ZM310.815 245.2C311.082 245.2 311.317 245.221 311.519 245.264L311.471 246.144C311.269 246.101 311.023 246.08 310.735 246.08C309.925 246.08 309.317 246.341 308.911 246.864C308.517 247.376 308.319 247.989 308.319 248.704V253.408H307.359V247.616C307.359 246.784 307.317 246.042 307.231 245.392H308.159L308.287 246.88C308.49 246.336 308.815 245.92 309.263 245.632C309.722 245.344 310.239 245.2 310.815 245.2ZM87.128 273.392L83.352 282.24C82.9787 283.114 82.5093 283.754 81.944 284.16C81.3893 284.576 80.6907 284.869 79.848 285.04L79.656 284.272C80.424 284.09 81 283.856 81.384 283.568C81.7787 283.28 82.1093 282.826 82.376 282.208L82.712 281.424L79.288 273.392H80.328L83.224 280.432L86.136 273.392H87.128ZM91.8401 281.52C91.1041 281.52 90.4535 281.349 89.8881 281.008C89.3335 280.666 88.9015 280.181 88.5921 279.552C88.2935 278.922 88.1441 278.192 88.1441 277.36C88.1441 276.528 88.2935 275.797 88.5921 275.168C88.9015 274.538 89.3335 274.053 89.8881 273.712C90.4535 273.37 91.1041 273.2 91.8401 273.2C92.5655 273.2 93.2055 273.37 93.7601 273.712C94.3148 274.053 94.7415 274.538 95.0401 275.168C95.3495 275.797 95.5041 276.528 95.5041 277.36C95.5041 278.192 95.3495 278.922 95.0401 279.552C94.7415 280.181 94.3148 280.666 93.7601 281.008C93.2055 281.349 92.5655 281.52 91.8401 281.52ZM91.8241 280.656C92.6775 280.656 93.3335 280.373 93.7921 279.808C94.2615 279.232 94.4961 278.416 94.4961 277.36C94.4961 276.314 94.2615 275.504 93.7921 274.928C93.3228 274.341 92.6721 274.048 91.8401 274.048C90.9975 274.048 90.3415 274.341 89.8721 274.928C89.4028 275.504 89.1681 276.314 89.1681 277.36C89.1681 278.426 89.3975 279.242 89.8561 279.808C90.3148 280.373 90.9708 280.656 91.8241 280.656ZM104.089 273.392V281.408H103.145V279.952C102.889 280.464 102.526 280.853 102.057 281.12C101.587 281.386 101.049 281.52 100.441 281.52C99.5018 281.52 98.7925 281.258 98.3125 280.736C97.8325 280.213 97.5925 279.44 97.5925 278.416V273.392H98.5525V278.352C98.5525 279.141 98.7125 279.722 99.0325 280.096C99.3525 280.469 99.8485 280.656 100.521 280.656C101.31 280.656 101.939 280.41 102.409 279.92C102.878 279.418 103.113 278.757 103.113 277.936V273.392H104.089ZM110.206 273.2C110.473 273.2 110.707 273.221 110.91 273.264L110.862 274.144C110.659 274.101 110.414 274.08 110.126 274.08C109.315 274.08 108.707 274.341 108.302 274.864C107.907 275.376 107.71 275.989 107.71 276.704V281.408H106.75V275.616C106.75 274.784 106.707 274.042 106.622 273.392H107.55L107.678 274.88C107.881 274.336 108.206 273.92 108.654 273.632C109.113 273.344 109.63 273.2 110.206 273.2ZM114.858 281.52C113.557 281.52 112.527 281.162 111.77 280.448L112.122 279.696C112.549 280.048 112.975 280.298 113.402 280.448C113.839 280.597 114.341 280.672 114.906 280.672C115.567 280.672 116.069 280.56 116.41 280.336C116.762 280.101 116.938 279.765 116.938 279.328C116.938 278.965 116.821 278.682 116.586 278.48C116.362 278.266 115.989 278.096 115.466 277.968L114.106 277.664C113.466 277.514 112.959 277.248 112.586 276.864C112.223 276.48 112.042 276.032 112.042 275.52C112.042 274.816 112.309 274.256 112.842 273.84C113.386 273.413 114.106 273.2 115.002 273.2C115.567 273.2 116.09 273.29 116.57 273.472C117.061 273.653 117.466 273.914 117.786 274.256L117.418 275.008C116.682 274.368 115.877 274.048 115.002 274.048C114.383 274.048 113.903 274.17 113.562 274.416C113.221 274.661 113.05 275.002 113.05 275.44C113.05 275.802 113.157 276.096 113.37 276.32C113.594 276.544 113.935 276.709 114.394 276.816L115.77 277.152C117.21 277.472 117.93 278.181 117.93 279.28C117.93 279.952 117.653 280.496 117.098 280.912C116.543 281.317 115.797 281.52 114.858 281.52ZM120.668 277.28V277.328C120.668 278.405 120.913 279.232 121.404 279.808C121.905 280.373 122.631 280.656 123.58 280.656C124.54 280.656 125.42 280.325 126.22 279.664L126.604 280.432C126.252 280.762 125.804 281.029 125.26 281.232C124.716 281.424 124.156 281.52 123.58 281.52C122.364 281.52 121.404 281.152 120.7 280.416C119.996 279.68 119.644 278.666 119.644 277.376C119.644 276.554 119.799 275.829 120.108 275.2C120.428 274.56 120.871 274.069 121.436 273.728C122.001 273.376 122.652 273.2 123.388 273.2C124.444 273.2 125.265 273.541 125.852 274.224C126.449 274.906 126.748 275.856 126.748 277.072V277.28H120.668ZM123.388 274C122.652 274 122.055 274.224 121.596 274.672C121.137 275.109 120.849 275.728 120.732 276.528H125.82C125.756 275.706 125.516 275.082 125.1 274.656C124.684 274.218 124.113 274 123.388 274ZM128.844 269.632H129.804V281.408H128.844V269.632ZM135.252 270.448C134.794 270.448 134.442 270.57 134.196 270.816C133.951 271.061 133.828 271.498 133.828 272.128V273.392H135.892V274.176H133.828V281.408H132.852V274.176H131.284V273.392H132.852V271.952C132.852 271.152 133.05 270.554 133.444 270.16C133.839 269.765 134.383 269.568 135.076 269.568C135.396 269.568 135.727 269.61 136.068 269.696V270.576C135.78 270.49 135.508 270.448 135.252 270.448ZM144.934 281.52C144.198 281.52 143.547 281.349 142.982 281.008C142.427 280.666 141.995 280.181 141.686 279.552C141.387 278.922 141.238 278.192 141.238 277.36C141.238 276.528 141.387 275.797 141.686 275.168C141.995 274.538 142.427 274.053 142.982 273.712C143.547 273.37 144.198 273.2 144.934 273.2C145.659 273.2 146.299 273.37 146.854 273.712C147.409 274.053 147.835 274.538 148.134 275.168C148.443 275.797 148.598 276.528 148.598 277.36C148.598 278.192 148.443 278.922 148.134 279.552C147.835 280.181 147.409 280.666 146.854 281.008C146.299 281.349 145.659 281.52 144.934 281.52ZM144.918 280.656C145.771 280.656 146.427 280.373 146.886 279.808C147.355 279.232 147.59 278.416 147.59 277.36C147.59 276.314 147.355 275.504 146.886 274.928C146.417 274.341 145.766 274.048 144.934 274.048C144.091 274.048 143.435 274.341 142.966 274.928C142.497 275.504 142.262 276.314 142.262 277.36C142.262 278.426 142.491 279.242 142.95 279.808C143.409 280.373 144.065 280.656 144.918 280.656ZM154.19 273.2C154.457 273.2 154.692 273.221 154.894 273.264L154.846 274.144C154.644 274.101 154.398 274.08 154.11 274.08C153.3 274.08 152.692 274.341 152.286 274.864C151.892 275.376 151.694 275.989 151.694 276.704V281.408H150.734V275.616C150.734 274.784 150.692 274.042 150.606 273.392H151.534L151.662 274.88C151.865 274.336 152.19 273.92 152.638 273.632C153.097 273.344 153.614 273.2 154.19 273.2ZM167.191 273.392L163.415 282.24C163.041 283.114 162.572 283.754 162.007 284.16C161.452 284.576 160.753 284.869 159.911 285.04L159.719 284.272C160.487 284.09 161.063 283.856 161.447 283.568C161.841 283.28 162.172 282.826 162.439 282.208L162.775 281.424L159.351 273.392H160.391L163.286 280.432L166.199 273.392H167.191ZM171.903 281.52C171.167 281.52 170.516 281.349 169.951 281.008C169.396 280.666 168.964 280.181 168.655 279.552C168.356 278.922 168.207 278.192 168.207 277.36C168.207 276.528 168.356 275.797 168.655 275.168C168.964 274.538 169.396 274.053 169.951 273.712C170.516 273.37 171.167 273.2 171.903 273.2C172.628 273.2 173.268 273.37 173.823 273.712C174.377 274.053 174.804 274.538 175.103 275.168C175.412 275.797 175.567 276.528 175.567 277.36C175.567 278.192 175.412 278.922 175.103 279.552C174.804 280.181 174.377 280.666 173.823 281.008C173.268 281.349 172.628 281.52 171.903 281.52ZM171.887 280.656C172.74 280.656 173.396 280.373 173.855 279.808C174.324 279.232 174.559 278.416 174.559 277.36C174.559 276.314 174.324 275.504 173.855 274.928C173.385 274.341 172.735 274.048 171.903 274.048C171.06 274.048 170.404 274.341 169.935 274.928C169.465 275.504 169.231 276.314 169.231 277.36C169.231 278.426 169.46 279.242 169.919 279.808C170.377 280.373 171.033 280.656 171.887 280.656ZM184.151 273.392V281.408H183.207V279.952C182.951 280.464 182.588 280.853 182.119 281.12C181.65 281.386 181.111 281.52 180.503 281.52C179.564 281.52 178.855 281.258 178.375 280.736C177.895 280.213 177.655 279.44 177.655 278.416V273.392H178.615V278.352C178.615 279.141 178.775 279.722 179.095 280.096C179.415 280.469 179.911 280.656 180.583 280.656C181.372 280.656 182.002 280.41 182.471 279.92C182.94 279.418 183.175 278.757 183.175 277.936V273.392H184.151ZM190.268 273.2C190.535 273.2 190.77 273.221 190.972 273.264L190.924 274.144C190.722 274.101 190.476 274.08 190.188 274.08C189.378 274.08 188.77 274.341 188.364 274.864C187.97 275.376 187.772 275.989 187.772 276.704V281.408H186.812V275.616C186.812 274.784 186.77 274.042 186.684 273.392H187.612L187.74 274.88C187.943 274.336 188.268 273.92 188.716 273.632C189.175 273.344 189.692 273.2 190.268 273.2ZM199.717 281.52C198.959 281.52 198.298 281.349 197.733 281.008C197.167 280.666 196.73 280.186 196.421 279.568C196.111 278.938 195.957 278.213 195.957 277.392C195.957 276.56 196.111 275.829 196.421 275.2C196.73 274.56 197.173 274.069 197.749 273.728C198.325 273.376 198.991 273.2 199.749 273.2C200.293 273.2 200.81 273.296 201.301 273.488C201.802 273.669 202.213 273.925 202.533 274.256L202.149 275.024C201.733 274.682 201.333 274.437 200.949 274.288C200.575 274.128 200.186 274.048 199.781 274.048C198.917 274.048 198.234 274.346 197.733 274.944C197.231 275.53 196.981 276.346 196.981 277.392C196.981 278.416 197.226 279.216 197.717 279.792C198.218 280.368 198.906 280.656 199.781 280.656C200.186 280.656 200.575 280.581 200.949 280.432C201.333 280.272 201.733 280.026 202.149 279.696L202.533 280.448C202.191 280.778 201.765 281.04 201.253 281.232C200.751 281.424 200.239 281.52 199.717 281.52ZM208.04 273.2C209.971 273.2 210.936 274.234 210.936 276.304V281.408H209.96V276.368C209.96 275.568 209.795 274.981 209.464 274.608C209.144 274.234 208.638 274.048 207.944 274.048C207.144 274.048 206.499 274.293 206.008 274.784C205.518 275.274 205.272 275.936 205.272 276.768V281.408H204.312V269.632H205.272V274.784C205.528 274.261 205.896 273.866 206.376 273.6C206.856 273.333 207.411 273.2 208.04 273.2ZM213.562 273.392H214.522V281.408H213.562V273.392ZM214.714 270.08V271.328H213.418V270.08H214.714ZM217.203 269.632H218.163V281.408H217.203V269.632ZM227.644 269.632V281.408H226.668V279.872C226.433 280.405 226.076 280.816 225.596 281.104C225.126 281.381 224.561 281.52 223.9 281.52C223.196 281.52 222.572 281.349 222.028 281.008C221.494 280.656 221.078 280.165 220.78 279.536C220.481 278.896 220.332 278.16 220.332 277.328C220.332 276.496 220.476 275.77 220.764 275.152C221.062 274.522 221.478 274.042 222.012 273.712C222.556 273.37 223.185 273.2 223.9 273.2C224.55 273.2 225.11 273.338 225.58 273.616C226.06 273.893 226.422 274.298 226.668 274.832V269.632H227.644ZM224.028 280.656C224.87 280.656 225.521 280.368 225.98 279.792C226.438 279.216 226.668 278.405 226.668 277.36C226.668 276.314 226.438 275.504 225.98 274.928C225.521 274.341 224.876 274.048 224.044 274.048C223.19 274.048 222.529 274.336 222.06 274.912C221.59 275.488 221.356 276.293 221.356 277.328C221.356 278.373 221.59 279.189 222.06 279.776C222.529 280.362 223.185 280.656 224.028 280.656ZM233.753 273.2C234.019 273.2 234.254 273.221 234.457 273.264L234.409 274.144C234.206 274.101 233.961 274.08 233.673 274.08C232.862 274.08 232.254 274.341 231.849 274.864C231.454 275.376 231.257 275.989 231.257 276.704V281.408H230.297V275.616C230.297 274.784 230.254 274.042 230.169 273.392H231.097L231.225 274.88C231.427 274.336 231.753 273.92 232.201 273.632C232.659 273.344 233.177 273.2 233.753 273.2ZM236.231 277.28V277.328C236.231 278.405 236.476 279.232 236.967 279.808C237.468 280.373 238.193 280.656 239.143 280.656C240.103 280.656 240.983 280.325 241.783 279.664L242.167 280.432C241.815 280.762 241.367 281.029 240.823 281.232C240.279 281.424 239.719 281.52 239.143 281.52C237.927 281.52 236.967 281.152 236.263 280.416C235.559 279.68 235.207 278.666 235.207 277.376C235.207 276.554 235.361 275.829 235.671 275.2C235.991 274.56 236.433 274.069 236.999 273.728C237.564 273.376 238.215 273.2 238.951 273.2C240.007 273.2 240.828 273.541 241.415 274.224C242.012 274.906 242.311 275.856 242.311 277.072V277.28H236.231ZM238.951 274C238.215 274 237.617 274.224 237.159 274.672C236.7 275.109 236.412 275.728 236.295 276.528H241.383C241.319 275.706 241.079 275.082 240.663 274.656C240.247 274.218 239.676 274 238.951 274ZM248.134 273.2C250.065 273.2 251.03 274.234 251.03 276.304V281.408H250.054V276.368C250.054 275.568 249.889 274.981 249.558 274.608C249.238 274.234 248.731 274.048 248.038 274.048C247.238 274.048 246.593 274.293 246.102 274.784C245.611 275.274 245.366 275.936 245.366 276.768V281.408H244.406V275.616C244.406 274.784 244.363 274.042 244.278 273.392H245.206L245.334 274.864C245.579 274.32 245.947 273.909 246.438 273.632C246.929 273.344 247.494 273.2 248.134 273.2ZM264.534 273.392V281.408H263.558V279.872C263.324 280.405 262.966 280.816 262.486 281.104C262.017 281.381 261.452 281.52 260.79 281.52C260.076 281.52 259.446 281.354 258.902 281.024C258.369 280.682 257.953 280.202 257.654 279.584C257.366 278.954 257.222 278.224 257.222 277.392C257.222 276.56 257.372 275.829 257.67 275.2C257.969 274.56 258.385 274.069 258.918 273.728C259.462 273.376 260.086 273.2 260.79 273.2C261.441 273.2 262.001 273.338 262.47 273.616C262.95 273.893 263.313 274.298 263.558 274.832V273.392H264.534ZM260.934 280.656C261.766 280.656 262.412 280.368 262.87 279.792C263.329 279.216 263.558 278.405 263.558 277.36C263.558 276.304 263.329 275.488 262.87 274.912C262.412 274.336 261.761 274.048 260.918 274.048C260.076 274.048 259.42 274.346 258.95 274.944C258.481 275.53 258.246 276.346 258.246 277.392C258.246 278.426 258.481 279.232 258.95 279.808C259.42 280.373 260.081 280.656 260.934 280.656ZM270.915 273.2C272.846 273.2 273.811 274.234 273.811 276.304V281.408H272.835V276.368C272.835 275.568 272.67 274.981 272.339 274.608C272.019 274.234 271.513 274.048 270.819 274.048C270.019 274.048 269.374 274.293 268.883 274.784C268.393 275.274 268.147 275.936 268.147 276.768V281.408H267.187V275.616C267.187 274.784 267.145 274.042 267.059 273.392H267.987L268.115 274.864C268.361 274.32 268.729 273.909 269.219 273.632C269.71 273.344 270.275 273.2 270.915 273.2ZM283.237 269.632V281.408H282.261V279.872C282.027 280.405 281.669 280.816 281.189 281.104C280.72 281.381 280.155 281.52 279.493 281.52C278.789 281.52 278.165 281.349 277.621 281.008C277.088 280.656 276.672 280.165 276.373 279.536C276.075 278.896 275.925 278.16 275.925 277.328C275.925 276.496 276.069 275.77 276.357 275.152C276.656 274.522 277.072 274.042 277.605 273.712C278.149 273.37 278.779 273.2 279.493 273.2C280.144 273.2 280.704 273.338 281.173 273.616C281.653 273.893 282.016 274.298 282.261 274.832V269.632H283.237ZM279.621 280.656C280.464 280.656 281.115 280.368 281.573 279.792C282.032 279.216 282.261 278.405 282.261 277.36C282.261 276.314 282.032 275.504 281.573 274.928C281.115 274.341 280.469 274.048 279.637 274.048C278.784 274.048 278.123 274.336 277.653 274.912C277.184 275.488 276.949 276.293 276.949 277.328C276.949 278.373 277.184 279.189 277.653 279.776C278.123 280.362 278.779 280.656 279.621 280.656ZM296.769 273.392L292.993 282.24C292.619 283.114 292.15 283.754 291.585 284.16C291.03 284.576 290.331 284.869 289.489 285.04L289.297 284.272C290.065 284.09 290.641 283.856 291.025 283.568C291.419 283.28 291.75 282.826 292.017 282.208L292.353 281.424L288.929 273.392H289.969L292.865 280.432L295.777 273.392H296.769ZM301.481 281.52C300.745 281.52 300.094 281.349 299.529 281.008C298.974 280.666 298.542 280.181 298.233 279.552C297.934 278.922 297.785 278.192 297.785 277.36C297.785 276.528 297.934 275.797 298.233 275.168C298.542 274.538 298.974 274.053 299.529 273.712C300.094 273.37 300.745 273.2 301.481 273.2C302.206 273.2 302.846 273.37 303.401 273.712C303.955 274.053 304.382 274.538 304.681 275.168C304.99 275.797 305.145 276.528 305.145 277.36C305.145 278.192 304.99 278.922 304.681 279.552C304.382 280.181 303.955 280.666 303.401 281.008C302.846 281.349 302.206 281.52 301.481 281.52ZM301.465 280.656C302.318 280.656 302.974 280.373 303.433 279.808C303.902 279.232 304.137 278.416 304.137 277.36C304.137 276.314 303.902 275.504 303.433 274.928C302.963 274.341 302.313 274.048 301.481 274.048C300.638 274.048 299.982 274.341 299.513 274.928C299.043 275.504 298.809 276.314 298.809 277.36C298.809 278.426 299.038 279.242 299.497 279.808C299.955 280.373 300.611 280.656 301.465 280.656ZM313.729 273.392V281.408H312.785V279.952C312.529 280.464 312.166 280.853 311.697 281.12C311.228 281.386 310.689 281.52 310.081 281.52C309.142 281.52 308.433 281.258 307.953 280.736C307.473 280.213 307.233 279.44 307.233 278.416V273.392H308.193V278.352C308.193 279.141 308.353 279.722 308.673 280.096C308.993 280.469 309.489 280.656 310.161 280.656C310.95 280.656 311.58 280.41 312.049 279.92C312.518 279.418 312.753 278.757 312.753 277.936V273.392H313.729ZM319.847 273.2C320.113 273.2 320.348 273.221 320.551 273.264L320.503 274.144C320.3 274.101 320.055 274.08 319.766 274.08C318.956 274.08 318.348 274.341 317.943 274.864C317.548 275.376 317.351 275.989 317.351 276.704V281.408H316.391V275.616C316.391 274.784 316.348 274.042 316.263 273.392H317.191L317.319 274.88C317.521 274.336 317.847 273.92 318.295 273.632C318.753 273.344 319.271 273.2 319.847 273.2ZM80.328 297.632H81.288V309.408H80.328V297.632ZM87.1526 309.52C86.4166 309.52 85.766 309.349 85.2006 309.008C84.646 308.666 84.214 308.181 83.9046 307.552C83.606 306.922 83.4566 306.192 83.4566 305.36C83.4566 304.528 83.606 303.797 83.9046 303.168C84.214 302.538 84.646 302.053 85.2006 301.712C85.766 301.37 86.4166 301.2 87.1526 301.2C87.878 301.2 88.518 301.37 89.0726 301.712C89.6273 302.053 90.054 302.538 90.3526 303.168C90.662 303.797 90.8166 304.528 90.8166 305.36C90.8166 306.192 90.662 306.922 90.3526 307.552C90.054 308.181 89.6273 308.666 89.0726 309.008C88.518 309.349 87.878 309.52 87.1526 309.52ZM87.1366 308.656C87.99 308.656 88.646 308.373 89.1046 307.808C89.574 307.232 89.8086 306.416 89.8086 305.36C89.8086 304.314 89.574 303.504 89.1046 302.928C88.6353 302.341 87.9846 302.048 87.1526 302.048C86.31 302.048 85.654 302.341 85.1846 302.928C84.7153 303.504 84.4806 304.314 84.4806 305.36C84.4806 306.426 84.71 307.242 85.1686 307.808C85.6273 308.373 86.2833 308.656 87.1366 308.656ZM99.6749 301.392L96.2349 309.408H95.2269L91.8349 301.392H92.8749L95.7709 308.432L98.6829 301.392H99.6749ZM101.715 305.28V305.328C101.715 306.405 101.96 307.232 102.451 307.808C102.952 308.373 103.678 308.656 104.627 308.656C105.587 308.656 106.467 308.325 107.267 307.664L107.651 308.432C107.299 308.762 106.851 309.029 106.307 309.232C105.763 309.424 105.203 309.52 104.627 309.52C103.411 309.52 102.451 309.152 101.747 308.416C101.043 307.68 100.691 306.666 100.691 305.376C100.691 304.554 100.846 303.829 101.155 303.2C101.475 302.56 101.918 302.069 102.483 301.728C103.048 301.376 103.699 301.2 104.435 301.2C105.491 301.2 106.312 301.541 106.899 302.224C107.496 302.906 107.795 303.856 107.795 305.072V305.28H101.715ZM104.435 302C103.699 302 103.102 302.224 102.643 302.672C102.184 303.109 101.896 303.728 101.779 304.528H106.867C106.803 303.706 106.563 303.082 106.147 302.656C105.731 302.218 105.16 302 104.435 302ZM109.891 297.632H110.851V309.408H109.891V297.632ZM120.331 301.392L116.555 310.24C116.182 311.114 115.712 311.754 115.147 312.16C114.592 312.576 113.894 312.869 113.051 313.04L112.859 312.272C113.627 312.09 114.203 311.856 114.587 311.568C114.982 311.28 115.312 310.826 115.579 310.208L115.915 309.424L112.491 301.392H113.531L116.427 308.432L119.339 301.392H120.331ZM128.784 298.448C128.325 298.448 127.973 298.57 127.728 298.816C127.482 299.061 127.36 299.498 127.36 300.128V301.392H129.424V302.176H127.36V309.408H126.384V302.176H124.816V301.392H126.384V299.952C126.384 299.152 126.581 298.554 126.976 298.16C127.37 297.765 127.914 297.568 128.608 297.568C128.928 297.568 129.258 297.61 129.6 297.696V298.576C129.312 298.49 129.04 298.448 128.784 298.448ZM137.925 301.392V309.408H136.949V307.872C136.714 308.405 136.357 308.816 135.877 309.104C135.408 309.381 134.842 309.52 134.181 309.52C133.466 309.52 132.837 309.354 132.293 309.024C131.76 308.682 131.344 308.202 131.045 307.584C130.757 306.954 130.613 306.224 130.613 305.392C130.613 304.56 130.762 303.829 131.061 303.2C131.36 302.56 131.776 302.069 132.309 301.728C132.853 301.376 133.477 301.2 134.181 301.2C134.832 301.2 135.392 301.338 135.861 301.616C136.341 301.893 136.704 302.298 136.949 302.832V301.392H137.925ZM134.325 308.656C135.157 308.656 135.802 308.368 136.261 307.792C136.72 307.216 136.949 306.405 136.949 305.36C136.949 304.304 136.72 303.488 136.261 302.912C135.802 302.336 135.152 302.048 134.309 302.048C133.466 302.048 132.81 302.346 132.341 302.944C131.872 303.53 131.637 304.346 131.637 305.392C131.637 306.426 131.872 307.232 132.341 307.808C132.81 308.373 133.472 308.656 134.325 308.656ZM149.218 301.2C150.989 301.2 151.874 302.234 151.874 304.304V309.408H150.898V304.368C150.898 303.557 150.754 302.97 150.466 302.608C150.178 302.234 149.719 302.048 149.09 302.048C148.354 302.048 147.773 302.293 147.346 302.784C146.93 303.274 146.722 303.941 146.722 304.784V309.408H145.746V304.368C145.746 303.557 145.597 302.97 145.298 302.608C145.01 302.234 144.551 302.048 143.922 302.048C143.197 302.048 142.615 302.293 142.178 302.784C141.751 303.274 141.538 303.941 141.538 304.784V309.408H140.578V303.616C140.578 302.784 140.535 302.042 140.45 301.392H141.378L141.506 302.832C141.73 302.298 142.061 301.893 142.498 301.616C142.946 301.338 143.463 301.2 144.05 301.2C145.341 301.2 146.167 301.722 146.53 302.768C146.754 302.277 147.101 301.893 147.57 301.616C148.05 301.338 148.599 301.2 149.218 301.2ZM154.484 301.392H155.444V309.408H154.484V301.392ZM155.636 298.08V299.328H154.34V298.08H155.636ZM158.125 297.632H159.085V309.408H158.125V297.632ZM168.566 301.392L164.79 310.24C164.416 311.114 163.947 311.754 163.382 312.16C162.827 312.576 162.128 312.869 161.286 313.04L161.094 312.272C161.862 312.09 162.438 311.856 162.822 311.568C163.216 311.28 163.547 310.826 163.814 310.208L164.15 309.424L160.726 301.392H161.766L164.661 308.432L167.574 301.392H168.566Z" fill="#7D7987"/>
<g clip-path="url(#clip0_63_2667)">
<path d="M146.476 83.0107H93.2584V140.127H146.476V83.0107Z" fill="url(#paint0_linear_63_2667)"/>
<path d="M93.0382 83.0107C93.1024 83.0107 93.1666 83.0383 93.2584 83.0658C93.2584 102.068 93.2584 121.07 93.2584 140.1C89.1386 140.421 85.6612 139.384 82.8994 136.723C80.945 134.833 80 132.613 80 130.099C80 121.199 80 112.308 80 103.408C80 100.013 79.9908 96.6178 79.9908 93.2229C79.9908 89.1215 82.2021 86.1395 86.2668 84.1209C88.3587 83.0933 90.6801 82.9373 93.0382 83.0107Z" fill="url(#paint1_linear_63_2667)"/>
<path d="M137.181 83.0016C139.557 83.0016 139.796 83.0016 142.163 83.0016C142.163 102.068 142.163 121.07 142.163 140.109C126.005 140.109 113.784 140.109 97.5708 140.109C97.5708 121.079 97.5708 102.077 97.5708 83.0199C99.9381 83.0199 100.452 83.0199 102.865 83.0199C102.865 82.7813 102.865 82.5978 102.865 82.4235C102.865 80.3774 102.874 78.3221 102.856 76.276C102.837 74.8447 103.223 73.5968 104.342 72.6242C105.131 71.9452 106.04 71.5966 107.067 71.5966C110.251 71.5874 113.426 71.5874 116.61 71.5874C121.959 71.5874 127.317 71.5966 132.667 71.5874C134.07 71.5874 135.236 72.0462 136.153 73.1105C136.887 73.9638 137.163 74.9639 137.163 76.0833C137.153 78.2395 137.163 80.3958 137.163 82.552C137.153 82.6712 137.163 82.8089 137.181 83.0016ZM108.609 83.0016C108.829 83.0016 108.994 83.0016 109.159 83.0016C111.692 83.0016 114.233 83.0016 116.766 83.0016C121.5 83.0016 126.244 83.0016 130.978 83.0107C131.355 83.0107 131.437 82.8914 131.437 82.5336C131.419 80.9279 131.437 79.3222 131.437 77.7165C131.437 77.5881 131.419 77.4596 131.4 77.322C123.785 77.322 116.215 77.322 108.609 77.322C108.609 79.2121 108.609 81.0656 108.609 83.0016Z" fill="white"/>
<mask id="mask0_63_2667" style="mask-type:alpha" maskUnits="userSpaceOnUse" x="97" y="71" width="46" height="70">
<path d="M137.181 83.0016C139.557 83.0016 139.796 83.0016 142.163 83.0016C142.163 102.068 142.163 121.07 142.163 140.109C126.005 140.109 113.784 140.109 97.5708 140.109C97.5708 121.079 97.5708 102.077 97.5708 83.0199C99.938 83.0199 100.452 83.0199 102.865 83.0199C102.865 82.7813 102.865 82.5978 102.865 82.4235C102.865 80.3774 102.874 78.3221 102.856 76.276C102.837 74.8447 103.223 73.5968 104.342 72.6242C105.131 71.9452 106.04 71.5966 107.067 71.5966C110.251 71.5874 113.426 71.5874 116.61 71.5874C121.959 71.5874 127.317 71.5966 132.667 71.5874C134.07 71.5874 135.236 72.0462 136.153 73.1105C136.887 73.9638 137.162 74.9639 137.162 76.0833C137.153 78.2395 137.162 80.3958 137.162 82.552C137.153 82.6712 137.162 82.8089 137.181 83.0016ZM108.609 83.0016C108.829 83.0016 108.994 83.0016 109.159 83.0016C111.692 83.0016 114.233 83.0016 116.766 83.0016C121.5 83.0016 126.244 83.0016 130.978 83.0107C131.354 83.0107 131.437 82.8914 131.437 82.5336C131.419 80.9279 131.437 79.3222 131.437 77.7165C131.437 77.5881 131.419 77.4596 131.4 77.322C123.785 77.322 116.215 77.322 108.609 77.322C108.609 79.2121 108.609 81.0656 108.609 83.0016Z" fill="#F7F9FC"/>
</mask>
<g mask="url(#mask0_63_2667)">
<path d="M138.096 69H101V83.02H138.096V69Z" fill="url(#paint2_linear_63_2667)"/>
</g>
<path d="M160 93.0762C160 89.2959 157.936 86.4791 154.265 84.433C152.008 83.176 149.448 82.9374 146.824 82.9925C146.42 83.0016 146.476 83.2127 146.476 83.4329C146.476 90.0391 146.476 96.6362 146.476 103.242C146.476 114.849 146.476 126.447 146.466 138.054C146.466 138.724 146.466 139.393 146.466 140.118C148.118 140.173 149.687 140.183 151.228 139.816C156.44 138.586 159.991 134.705 159.991 130.126C160.009 117.785 160 105.426 160 93.0762Z" fill="url(#paint3_linear_63_2667)"/>
<path d="M124.216 115.785C124.216 116.969 124.216 118.088 124.216 119.217C124.216 120.492 124.216 121.768 124.216 123.034C124.216 123.795 123.831 124.199 123.078 124.199C121.005 124.208 118.931 124.208 116.857 124.199C116.169 124.199 115.784 123.768 115.784 123.043C115.784 120.767 115.784 118.492 115.784 116.216C115.784 116.088 115.784 115.95 115.784 115.785C115.61 115.785 115.481 115.785 115.344 115.785C113.105 115.785 110.857 115.785 108.618 115.785C107.728 115.785 107.361 115.427 107.361 114.537C107.361 112.565 107.361 110.592 107.361 108.619C107.361 107.72 107.719 107.362 108.609 107.362C110.838 107.362 113.068 107.362 115.298 107.362C115.444 107.362 115.582 107.362 115.775 107.362C115.775 107.215 115.775 107.096 115.775 106.977C115.775 104.701 115.775 102.426 115.775 100.15C115.775 99.3062 116.151 98.9392 116.995 98.9392C118.968 98.9392 120.94 98.9392 122.913 98.9392C123.84 98.9392 124.198 99.2879 124.198 100.233C124.207 102.49 124.198 104.738 124.198 106.995C124.198 107.105 124.198 107.215 124.198 107.371C124.345 107.371 124.473 107.371 124.592 107.371C126.868 107.371 129.143 107.371 131.419 107.381C132.254 107.381 132.612 107.748 132.612 108.583C132.612 110.564 132.612 112.546 132.612 114.528C132.612 115.437 132.263 115.785 131.373 115.785C129.107 115.785 126.84 115.785 124.583 115.794C124.491 115.785 124.381 115.785 124.216 115.785Z" fill="url(#paint4_linear_63_2667)"/>
</g>
<defs>
<filter id="filter0_d_63_2667" x="0" y="0" width="450" height="454" filterUnits="userSpaceOnUse" color-interpolation-filters="sRGB">
<feFlood flood-opacity="0" result="BackgroundImageFix"/>
<feColorMatrix in="SourceAlpha" type="matrix" values="0 0 0 0 0 0 0 0 0 0 0 0 0 0 0 0 0 0 127 0" result="hardAlpha"/>
<feOffset dx="10" dy="40"/>
<feGaussianBlur stdDeviation="25"/>
<feColorMatrix type="matrix" values="0 0 0 0 0.897151 0 0 0 0 0.915421 0 0 0 0 0.962796 0 0 0 0.4 0"/>
<feBlend mode="normal" in2="BackgroundImageFix" result="effect1_dropShadow_63_2667"/>
<feBlend mode="normal" in="SourceGraphic" in2="effect1_dropShadow_63_2667" result="shape"/>
</filter>
<linearGradient id="paint0_linear_63_2667" x1="93.2597" y1="111.566" x2="146.473" y2="111.566" gradientUnits="userSpaceOnUse">
<stop stop-color="#B0F4FF"/>
<stop offset="1" stop-color="#69DCFC"/>
</linearGradient>
<linearGradient id="paint1_linear_63_2667" x1="80" y1="111.575" x2="93.2597" y2="111.575" gradientUnits="userSpaceOnUse">
<stop stop-color="#6CBCFC"/>
<stop offset="1" stop-color="#458DFC"/>
</linearGradient>
<linearGradient id="paint2_linear_63_2667" x1="100.996" y1="76.0085" x2="138.094" y2="76.0085" gradientUnits="userSpaceOnUse">
<stop stop-color="#6CBCFC"/>
<stop offset="1" stop-color="#458DFC"/>
</linearGradient>
<linearGradient id="paint3_linear_63_2667" x1="146.469" y1="111.569" x2="160.001" y2="111.569" gradientUnits="userSpaceOnUse">
<stop stop-color="#6CBCFC"/>
<stop offset="1" stop-color="#458DFC"/>
</linearGradient>
<linearGradient id="paint4_linear_63_2667" x1="107.367" y1="111.578" x2="132.63" y2="111.578" gradientUnits="userSpaceOnUse">
<stop stop-color="#6CBCFC"/>
<stop offset="1" stop-color="#458DFC"/>
</linearGradient>
<clipPath id="clip0_63_2667">
<rect width="80" height="71.1549" fill="white" transform="translate(80 69)"/>
</clipPath>
</defs>
</svg>
