<svg width="391" height="201" viewBox="0 0 391 201" fill="none" xmlns="http://www.w3.org/2000/svg">
<path d="M59.856 15.456H54.288V12.912H68.568V15.456H62.976V30H59.856V15.456ZM75.1209 17.592C75.5849 17.592 75.9849 17.656 76.3209 17.784L76.2969 20.52C75.7849 20.312 75.2569 20.208 74.7129 20.208C73.6889 20.208 72.9049 20.504 72.3609 21.096C71.8329 21.688 71.5689 22.472 71.5689 23.448V30H68.5929V21.312C68.5929 20.032 68.5289 18.888 68.4009 17.88H71.2089L71.4489 20.016C71.7529 19.232 72.2329 18.632 72.8889 18.216C73.5449 17.8 74.2889 17.592 75.1209 17.592ZM89.349 17.88V30H86.397V28.056C86.029 28.728 85.501 29.256 84.813 29.64C84.125 30.008 83.341 30.192 82.461 30.192C81.405 30.192 80.469 29.936 79.653 29.424C78.837 28.912 78.205 28.184 77.757 27.24C77.309 26.296 77.085 25.2 77.085 23.952C77.085 22.704 77.309 21.6 77.757 20.64C78.221 19.664 78.861 18.912 79.677 18.384C80.493 17.84 81.421 17.568 82.461 17.568C83.341 17.568 84.125 17.76 84.813 18.144C85.501 18.512 86.029 19.032 86.397 19.704V17.88H89.349ZM83.277 27.84C84.269 27.84 85.037 27.496 85.581 26.808C86.125 26.12 86.397 25.152 86.397 23.904C86.397 22.624 86.125 21.64 85.581 20.952C85.037 20.264 84.261 19.92 83.253 19.92C82.261 19.92 81.485 20.28 80.925 21C80.381 21.704 80.109 22.688 80.109 23.952C80.109 25.2 80.381 26.16 80.925 26.832C81.485 27.504 82.269 27.84 83.277 27.84ZM98.3524 14.712C97.0564 14.712 96.4084 15.424 96.4084 16.848V17.88H99.1204V20.136H96.4084V30H93.4084V20.136H91.1044V17.88H93.4084V16.704C93.4084 15.264 93.7684 14.16 94.4884 13.392C95.2244 12.608 96.2724 12.216 97.6324 12.216C98.3844 12.216 99.0164 12.312 99.5284 12.504V14.88C99.0804 14.768 98.6884 14.712 98.3524 14.712ZM112.904 17.88V30H109.952V28.056C109.584 28.728 109.056 29.256 108.368 29.64C107.68 30.008 106.896 30.192 106.016 30.192C104.96 30.192 104.024 29.936 103.208 29.424C102.392 28.912 101.76 28.184 101.312 27.24C100.864 26.296 100.64 25.2 100.64 23.952C100.64 22.704 100.864 21.6 101.312 20.64C101.776 19.664 102.416 18.912 103.232 18.384C104.048 17.84 104.976 17.568 106.016 17.568C106.896 17.568 107.68 17.76 108.368 18.144C109.056 18.512 109.584 19.032 109.952 19.704V17.88H112.904ZM106.832 27.84C107.824 27.84 108.592 27.496 109.136 26.808C109.68 26.12 109.952 25.152 109.952 23.904C109.952 22.624 109.68 21.64 109.136 20.952C108.592 20.264 107.816 19.92 106.808 19.92C105.816 19.92 105.04 20.28 104.48 21C103.936 21.704 103.664 22.688 103.664 23.952C103.664 25.2 103.936 26.16 104.48 26.832C105.04 27.504 105.824 27.84 106.832 27.84ZM116.171 12.336H119.147V30H116.171V12.336ZM134.141 17.88V29.616C134.141 31.504 133.621 32.936 132.581 33.912C131.541 34.888 130.013 35.376 127.997 35.376C126.125 35.376 124.477 34.984 123.053 34.2L123.533 31.92C125.005 32.688 126.469 33.072 127.925 33.072C130.085 33.072 131.165 32 131.165 29.856V27.456C130.797 28.112 130.261 28.648 129.557 29.064C128.853 29.464 128.061 29.664 127.181 29.664C126.125 29.664 125.181 29.416 124.349 28.92C123.533 28.408 122.893 27.696 122.429 26.784C121.981 25.856 121.757 24.8 121.757 23.616C121.757 22.432 121.981 21.384 122.429 20.472C122.893 19.544 123.533 18.832 124.349 18.336C125.181 17.824 126.125 17.568 127.181 17.568C128.077 17.568 128.869 17.76 129.557 18.144C130.261 18.512 130.797 19.032 131.165 19.704V17.88H134.141ZM127.973 27.312C128.965 27.312 129.741 26.984 130.301 26.328C130.877 25.672 131.165 24.768 131.165 23.616C131.165 22.464 130.885 21.56 130.325 20.904C129.765 20.248 128.981 19.92 127.973 19.92C126.981 19.92 126.197 20.248 125.621 20.904C125.061 21.56 124.781 22.464 124.781 23.616C124.781 24.768 125.061 25.672 125.621 26.328C126.197 26.984 126.981 27.312 127.973 27.312ZM148.974 17.88V30H146.022V28.056C145.654 28.728 145.126 29.256 144.438 29.64C143.75 30.008 142.966 30.192 142.086 30.192C141.03 30.192 140.094 29.936 139.278 29.424C138.462 28.912 137.83 28.184 137.382 27.24C136.934 26.296 136.71 25.2 136.71 23.952C136.71 22.704 136.934 21.6 137.382 20.64C137.846 19.664 138.486 18.912 139.302 18.384C140.118 17.84 141.046 17.568 142.086 17.568C142.966 17.568 143.75 17.76 144.438 18.144C145.126 18.512 145.654 19.032 146.022 19.704V17.88H148.974ZM142.902 27.84C143.894 27.84 144.662 27.496 145.206 26.808C145.75 26.12 146.022 25.152 146.022 23.904C146.022 22.624 145.75 21.64 145.206 20.952C144.662 20.264 143.886 19.92 142.878 19.92C141.886 19.92 141.11 20.28 140.55 21C140.006 21.704 139.734 22.688 139.734 23.952C139.734 25.2 140.006 26.16 140.55 26.832C141.11 27.504 141.894 27.84 142.902 27.84ZM158.769 17.592C159.233 17.592 159.633 17.656 159.969 17.784L159.945 20.52C159.433 20.312 158.905 20.208 158.361 20.208C157.337 20.208 156.553 20.504 156.009 21.096C155.481 21.688 155.217 22.472 155.217 23.448V30H152.241V21.312C152.241 20.032 152.177 18.888 152.049 17.88H154.857L155.097 20.016C155.401 19.232 155.881 18.632 156.537 18.216C157.193 17.8 157.937 17.592 158.769 17.592Z" fill="white"/>
<circle cx="21.5" cy="20.5" r="20.5" fill="white"/>
<path d="M20.344 15.244H14.312V12.488H29.782V15.244H23.724V31H20.344V15.244Z" fill="#5B9BF3"/>
<path d="M4.806 67.156H0.216V66.184H10.512V67.156H5.922V79H4.806V67.156ZM14.7336 69.766C15.0336 69.766 15.2976 69.79 15.5256 69.838L15.4716 70.828C15.2436 70.78 14.9676 70.756 14.6436 70.756C13.7316 70.756 13.0476 71.05 12.5916 71.638C12.1476 72.214 11.9256 72.904 11.9256 73.708V79H10.8456V72.484C10.8456 71.548 10.7976 70.714 10.7016 69.982H11.7456L11.8896 71.656C12.1176 71.044 12.4836 70.576 12.9876 70.252C13.5036 69.928 14.0856 69.766 14.7336 69.766ZM24.5952 69.982V79H23.4972V77.272C23.2332 77.872 22.8312 78.334 22.2912 78.658C21.7632 78.97 21.1272 79.126 20.3832 79.126C19.5792 79.126 18.8712 78.94 18.2592 78.568C17.6592 78.184 17.1912 77.644 16.8552 76.948C16.5312 76.24 16.3692 75.418 16.3692 74.482C16.3692 73.546 16.5372 72.724 16.8732 72.016C17.2092 71.296 17.6772 70.744 18.2772 70.36C18.8892 69.964 19.5912 69.766 20.3832 69.766C21.1152 69.766 21.7452 69.922 22.2732 70.234C22.8132 70.546 23.2212 71.002 23.4972 71.602V69.982H24.5952ZM20.5452 78.154C21.4812 78.154 22.2072 77.83 22.7232 77.182C23.2392 76.534 23.4972 75.622 23.4972 74.446C23.4972 73.258 23.2392 72.34 22.7232 71.692C22.2072 71.044 21.4752 70.72 20.5272 70.72C19.5792 70.72 18.8412 71.056 18.3132 71.728C17.7852 72.388 17.5212 73.306 17.5212 74.482C17.5212 75.646 17.7852 76.552 18.3132 77.2C18.8412 77.836 19.5852 78.154 20.5452 78.154ZM30.6939 66.67C30.1779 66.67 29.7819 66.808 29.5059 67.084C29.2299 67.36 29.0919 67.852 29.0919 68.56V69.982H31.4139V70.864H29.0919V79H27.9939V70.864H26.2299V69.982H27.9939V68.362C27.9939 67.462 28.2159 66.79 28.6599 66.346C29.1039 65.902 29.7159 65.68 30.4959 65.68C30.8559 65.68 31.2279 65.728 31.6119 65.824V66.814C31.2879 66.718 30.9819 66.67 30.6939 66.67ZM40.978 69.982V79H39.88V77.272C39.616 77.872 39.214 78.334 38.674 78.658C38.146 78.97 37.51 79.126 36.766 79.126C35.962 79.126 35.254 78.94 34.642 78.568C34.042 78.184 33.574 77.644 33.238 76.948C32.914 76.24 32.752 75.418 32.752 74.482C32.752 73.546 32.92 72.724 33.256 72.016C33.592 71.296 34.06 70.744 34.66 70.36C35.272 69.964 35.974 69.766 36.766 69.766C37.498 69.766 38.128 69.922 38.656 70.234C39.196 70.546 39.604 71.002 39.88 71.602V69.982H40.978ZM36.928 78.154C37.864 78.154 38.59 77.83 39.106 77.182C39.622 76.534 39.88 75.622 39.88 74.446C39.88 73.258 39.622 72.34 39.106 71.692C38.59 71.044 37.858 70.72 36.91 70.72C35.962 70.72 35.224 71.056 34.696 71.728C34.168 72.388 33.904 73.306 33.904 74.482C33.904 75.646 34.168 76.552 34.696 77.2C35.224 77.836 35.968 78.154 36.928 78.154ZM43.9628 65.752H45.0428V79H43.9628V65.752ZM55.7805 69.982V79.036C55.7805 80.344 55.4565 81.334 54.8085 82.006C54.1605 82.678 53.2065 83.014 51.9465 83.014C50.6025 83.014 49.4325 82.69 48.4365 82.042L48.6525 81.088C49.2405 81.436 49.7805 81.682 50.2725 81.826C50.7645 81.97 51.3285 82.042 51.9645 82.042C52.8645 82.042 53.5425 81.796 53.9985 81.304C54.4665 80.812 54.7005 80.092 54.7005 79.144V76.822C54.4245 77.434 54.0165 77.908 53.4765 78.244C52.9365 78.568 52.2885 78.73 51.5325 78.73C50.7405 78.73 50.0385 78.544 49.4265 78.172C48.8145 77.788 48.3345 77.26 47.9865 76.588C47.6505 75.904 47.4825 75.124 47.4825 74.248C47.4825 73.36 47.6505 72.58 47.9865 71.908C48.3345 71.224 48.8145 70.696 49.4265 70.324C50.0385 69.952 50.7405 69.766 51.5325 69.766C52.2885 69.766 52.9305 69.922 53.4585 70.234C53.9985 70.546 54.4065 71.002 54.6825 71.602V69.982H55.7805ZM51.6765 77.74C52.6125 77.74 53.3445 77.428 53.8725 76.804C54.4125 76.18 54.6825 75.328 54.6825 74.248C54.6825 73.156 54.4125 72.298 53.8725 71.674C53.3445 71.038 52.6125 70.72 51.6765 70.72C50.7285 70.72 49.9845 71.038 49.4445 71.674C48.9045 72.298 48.6345 73.156 48.6345 74.248C48.6345 75.34 48.9045 76.198 49.4445 76.822C49.9845 77.434 50.7285 77.74 51.6765 77.74ZM66.4135 69.982V79H65.3155V77.272C65.0515 77.872 64.6495 78.334 64.1095 78.658C63.5815 78.97 62.9455 79.126 62.2015 79.126C61.3975 79.126 60.6895 78.94 60.0775 78.568C59.4775 78.184 59.0095 77.644 58.6735 76.948C58.3495 76.24 58.1875 75.418 58.1875 74.482C58.1875 73.546 58.3555 72.724 58.6915 72.016C59.0275 71.296 59.4955 70.744 60.0955 70.36C60.7075 69.964 61.4095 69.766 62.2015 69.766C62.9335 69.766 63.5635 69.922 64.0915 70.234C64.6315 70.546 65.0395 71.002 65.3155 71.602V69.982H66.4135ZM62.3635 78.154C63.2995 78.154 64.0255 77.83 64.5415 77.182C65.0575 76.534 65.3155 75.622 65.3155 74.446C65.3155 73.258 65.0575 72.34 64.5415 71.692C64.0255 71.044 63.2935 70.72 62.3455 70.72C61.3975 70.72 60.6595 71.056 60.1315 71.728C59.6035 72.388 59.3395 73.306 59.3395 74.482C59.3395 75.646 59.6035 76.552 60.1315 77.2C60.6595 77.836 61.4035 78.154 62.3635 78.154ZM73.2863 69.766C73.5863 69.766 73.8503 69.79 74.0783 69.838L74.0243 70.828C73.7963 70.78 73.5203 70.756 73.1963 70.756C72.2843 70.756 71.6003 71.05 71.1443 71.638C70.7003 72.214 70.4783 72.904 70.4783 73.708V79H69.3983V72.484C69.3983 71.548 69.3503 70.714 69.2543 69.982H70.2983L70.4423 71.656C70.6703 71.044 71.0363 70.576 71.5403 70.252C72.0563 69.928 72.6383 69.766 73.2863 69.766ZM84.4736 69.766C85.2656 69.766 85.9616 69.964 86.5616 70.36C87.1736 70.744 87.6476 71.296 87.9836 72.016C88.3196 72.724 88.4876 73.546 88.4876 74.482C88.4876 75.418 88.3196 76.234 87.9836 76.93C87.6596 77.626 87.1916 78.166 86.5796 78.55C85.9676 78.934 85.2656 79.126 84.4736 79.126C83.7176 79.126 83.0696 78.964 82.5296 78.64C82.0016 78.304 81.6056 77.824 81.3416 77.2V82.888H80.2616V72.484C80.2616 71.548 80.2136 70.714 80.1176 69.982H81.1616L81.3056 71.746C81.5696 71.11 81.9716 70.624 82.5116 70.288C83.0636 69.94 83.7176 69.766 84.4736 69.766ZM84.3296 78.154C85.2776 78.154 86.0156 77.836 86.5436 77.2C87.0716 76.552 87.3356 75.646 87.3356 74.482C87.3356 73.306 87.0716 72.388 86.5436 71.728C86.0156 71.056 85.2836 70.72 84.3476 70.72C83.3876 70.72 82.6496 71.044 82.1336 71.692C81.6176 72.34 81.3596 73.258 81.3596 74.446C81.3596 75.622 81.6176 76.534 82.1336 77.182C82.6496 77.83 83.3816 78.154 84.3296 78.154ZM94.7843 69.766C95.0843 69.766 95.3483 69.79 95.5763 69.838L95.5223 70.828C95.2943 70.78 95.0183 70.756 94.6943 70.756C93.7823 70.756 93.0983 71.05 92.6423 71.638C92.1983 72.214 91.9763 72.904 91.9763 73.708V79H90.8963V72.484C90.8963 71.548 90.8483 70.714 90.7523 69.982H91.7963L91.9403 71.656C92.1683 71.044 92.5343 70.576 93.0383 70.252C93.5543 69.928 94.1363 69.766 94.7843 69.766ZM100.578 79.126C99.75 79.126 99.018 78.934 98.382 78.55C97.758 78.166 97.272 77.62 96.924 76.912C96.588 76.204 96.42 75.382 96.42 74.446C96.42 73.51 96.588 72.688 96.924 71.98C97.272 71.272 97.758 70.726 98.382 70.342C99.018 69.958 99.75 69.766 100.578 69.766C101.394 69.766 102.114 69.958 102.738 70.342C103.362 70.726 103.842 71.272 104.178 71.98C104.526 72.688 104.7 73.51 104.7 74.446C104.7 75.382 104.526 76.204 104.178 76.912C103.842 77.62 103.362 78.166 102.738 78.55C102.114 78.934 101.394 79.126 100.578 79.126ZM100.56 78.154C101.52 78.154 102.258 77.836 102.774 77.2C103.302 76.552 103.566 75.634 103.566 74.446C103.566 73.27 103.302 72.358 102.774 71.71C102.246 71.05 101.514 70.72 100.578 70.72C99.63 70.72 98.892 71.05 98.364 71.71C97.836 72.358 97.572 73.27 97.572 74.446C97.572 75.646 97.83 76.564 98.346 77.2C98.862 77.836 99.6 78.154 100.56 78.154ZM114.665 69.982L110.795 79H109.661L105.845 69.982H107.015L110.273 77.902L113.549 69.982H114.665ZM116.473 69.982H117.553V79H116.473V69.982ZM117.769 66.256V67.66H116.311V66.256H117.769ZM128.218 65.752V79H127.12V77.272C126.856 77.872 126.454 78.334 125.914 78.658C125.386 78.97 124.75 79.126 124.006 79.126C123.214 79.126 122.512 78.934 121.9 78.55C121.3 78.154 120.832 77.602 120.496 76.894C120.16 76.174 119.992 75.346 119.992 74.41C119.992 73.474 120.154 72.658 120.478 71.962C120.814 71.254 121.282 70.714 121.882 70.342C122.494 69.958 123.202 69.766 124.006 69.766C124.738 69.766 125.368 69.922 125.896 70.234C126.436 70.546 126.844 71.002 127.12 71.602V65.752H128.218ZM124.15 78.154C125.098 78.154 125.83 77.83 126.346 77.182C126.862 76.534 127.12 75.622 127.12 74.446C127.12 73.27 126.862 72.358 126.346 71.71C125.83 71.05 125.104 70.72 124.168 70.72C123.208 70.72 122.464 71.044 121.936 71.692C121.408 72.34 121.144 73.246 121.144 74.41C121.144 75.586 121.408 76.504 121.936 77.164C122.464 77.824 123.202 78.154 124.15 78.154ZM131.779 74.356V74.41C131.779 75.622 132.055 76.552 132.607 77.2C133.171 77.836 133.987 78.154 135.055 78.154C136.135 78.154 137.125 77.782 138.025 77.038L138.457 77.902C138.061 78.274 137.557 78.574 136.945 78.802C136.333 79.018 135.703 79.126 135.055 79.126C133.687 79.126 132.607 78.712 131.815 77.884C131.023 77.056 130.627 75.916 130.627 74.464C130.627 73.54 130.801 72.724 131.149 72.016C131.509 71.296 132.007 70.744 132.643 70.36C133.279 69.964 134.011 69.766 134.839 69.766C136.027 69.766 136.951 70.15 137.611 70.918C138.283 71.686 138.619 72.754 138.619 74.122V74.356H131.779ZM134.839 70.666C134.011 70.666 133.339 70.918 132.823 71.422C132.307 71.914 131.983 72.61 131.851 73.51H137.575C137.503 72.586 137.233 71.884 136.765 71.404C136.297 70.912 135.655 70.666 134.839 70.666ZM143.91 79.126C142.446 79.126 141.288 78.724 140.436 77.92L140.832 77.074C141.312 77.47 141.792 77.752 142.272 77.92C142.764 78.088 143.328 78.172 143.964 78.172C144.708 78.172 145.272 78.046 145.656 77.794C146.052 77.53 146.25 77.152 146.25 76.66C146.25 76.252 146.118 75.934 145.854 75.706C145.602 75.466 145.182 75.274 144.594 75.13L143.064 74.788C142.344 74.62 141.774 74.32 141.354 73.888C140.946 73.456 140.742 72.952 140.742 72.376C140.742 71.584 141.042 70.954 141.642 70.486C142.254 70.006 143.064 69.766 144.072 69.766C144.708 69.766 145.296 69.868 145.836 70.072C146.388 70.276 146.844 70.57 147.204 70.954L146.79 71.8C145.962 71.08 145.056 70.72 144.072 70.72C143.376 70.72 142.836 70.858 142.452 71.134C142.068 71.41 141.876 71.794 141.876 72.286C141.876 72.694 141.996 73.024 142.236 73.276C142.488 73.528 142.872 73.714 143.388 73.834L144.936 74.212C146.556 74.572 147.366 75.37 147.366 76.606C147.366 77.362 147.054 77.974 146.43 78.442C145.806 78.898 144.966 79.126 143.91 79.126ZM158.671 69.766C159.463 69.766 160.159 69.964 160.759 70.36C161.371 70.744 161.845 71.296 162.181 72.016C162.517 72.724 162.685 73.546 162.685 74.482C162.685 75.418 162.517 76.234 162.181 76.93C161.857 77.626 161.389 78.166 160.777 78.55C160.165 78.934 159.463 79.126 158.671 79.126C157.915 79.126 157.267 78.964 156.727 78.64C156.199 78.304 155.803 77.824 155.539 77.2V82.888H154.459V72.484C154.459 71.548 154.411 70.714 154.315 69.982H155.359L155.503 71.746C155.767 71.11 156.169 70.624 156.709 70.288C157.261 69.94 157.915 69.766 158.671 69.766ZM158.527 78.154C159.475 78.154 160.213 77.836 160.741 77.2C161.269 76.552 161.533 75.646 161.533 74.482C161.533 73.306 161.269 72.388 160.741 71.728C160.213 71.056 159.481 70.72 158.545 70.72C157.585 70.72 156.847 71.044 156.331 71.692C155.815 72.34 155.557 73.258 155.557 74.446C155.557 75.622 155.815 76.534 156.331 77.182C156.847 77.83 157.579 78.154 158.527 78.154ZM168.982 69.766C169.282 69.766 169.546 69.79 169.774 69.838L169.72 70.828C169.492 70.78 169.216 70.756 168.892 70.756C167.98 70.756 167.296 71.05 166.84 71.638C166.396 72.214 166.174 72.904 166.174 73.708V79H165.094V72.484C165.094 71.548 165.046 70.714 164.95 69.982H165.994L166.138 71.656C166.366 71.044 166.732 70.576 167.236 70.252C167.752 69.928 168.334 69.766 168.982 69.766ZM174.775 79.126C173.947 79.126 173.215 78.934 172.579 78.55C171.955 78.166 171.469 77.62 171.121 76.912C170.785 76.204 170.617 75.382 170.617 74.446C170.617 73.51 170.785 72.688 171.121 71.98C171.469 71.272 171.955 70.726 172.579 70.342C173.215 69.958 173.947 69.766 174.775 69.766C175.591 69.766 176.311 69.958 176.935 70.342C177.559 70.726 178.039 71.272 178.375 71.98C178.723 72.688 178.897 73.51 178.897 74.446C178.897 75.382 178.723 76.204 178.375 76.912C178.039 77.62 177.559 78.166 176.935 78.55C176.311 78.934 175.591 79.126 174.775 79.126ZM174.757 78.154C175.717 78.154 176.455 77.836 176.971 77.2C177.499 76.552 177.763 75.634 177.763 74.446C177.763 73.27 177.499 72.358 176.971 71.71C176.443 71.05 175.711 70.72 174.775 70.72C173.827 70.72 173.089 71.05 172.561 71.71C172.033 72.358 171.769 73.27 171.769 74.446C171.769 75.646 172.027 76.564 172.543 77.2C173.059 77.836 173.797 78.154 174.757 78.154ZM189.023 69.982V79.036C189.023 80.344 188.699 81.334 188.051 82.006C187.403 82.678 186.449 83.014 185.189 83.014C183.845 83.014 182.675 82.69 181.679 82.042L181.895 81.088C182.483 81.436 183.023 81.682 183.515 81.826C184.007 81.97 184.571 82.042 185.207 82.042C186.107 82.042 186.785 81.796 187.241 81.304C187.709 80.812 187.943 80.092 187.943 79.144V76.822C187.667 77.434 187.259 77.908 186.719 78.244C186.179 78.568 185.531 78.73 184.775 78.73C183.983 78.73 183.281 78.544 182.669 78.172C182.057 77.788 181.577 77.26 181.229 76.588C180.893 75.904 180.725 75.124 180.725 74.248C180.725 73.36 180.893 72.58 181.229 71.908C181.577 71.224 182.057 70.696 182.669 70.324C183.281 69.952 183.983 69.766 184.775 69.766C185.531 69.766 186.173 69.922 186.701 70.234C187.241 70.546 187.649 71.002 187.925 71.602V69.982H189.023ZM184.919 77.74C185.855 77.74 186.587 77.428 187.115 76.804C187.655 76.18 187.925 75.328 187.925 74.248C187.925 73.156 187.655 72.298 187.115 71.674C186.587 71.038 185.855 70.72 184.919 70.72C183.971 70.72 183.227 71.038 182.687 71.674C182.147 72.298 181.877 73.156 181.877 74.248C181.877 75.34 182.147 76.198 182.687 76.822C183.227 77.434 183.971 77.74 184.919 77.74ZM195.894 69.766C196.194 69.766 196.458 69.79 196.686 69.838L196.632 70.828C196.404 70.78 196.128 70.756 195.804 70.756C194.892 70.756 194.208 71.05 193.752 71.638C193.308 72.214 193.086 72.904 193.086 73.708V79H192.006V72.484C192.006 71.548 191.958 70.714 191.862 69.982H192.906L193.05 71.656C193.278 71.044 193.644 70.576 194.148 70.252C194.664 69.928 195.246 69.766 195.894 69.766ZM198.681 74.356V74.41C198.681 75.622 198.957 76.552 199.509 77.2C200.073 77.836 200.889 78.154 201.957 78.154C203.037 78.154 204.027 77.782 204.927 77.038L205.359 77.902C204.963 78.274 204.459 78.574 203.847 78.802C203.235 79.018 202.605 79.126 201.957 79.126C200.589 79.126 199.509 78.712 198.717 77.884C197.925 77.056 197.529 75.916 197.529 74.464C197.529 73.54 197.703 72.724 198.051 72.016C198.411 71.296 198.909 70.744 199.545 70.36C200.181 69.964 200.913 69.766 201.741 69.766C202.929 69.766 203.853 70.15 204.513 70.918C205.185 71.686 205.521 72.754 205.521 74.122V74.356H198.681ZM201.741 70.666C200.913 70.666 200.241 70.918 199.725 71.422C199.209 71.914 198.885 72.61 198.753 73.51H204.477C204.405 72.586 204.135 71.884 203.667 71.404C203.199 70.912 202.557 70.666 201.741 70.666ZM210.813 79.126C209.349 79.126 208.191 78.724 207.339 77.92L207.735 77.074C208.215 77.47 208.695 77.752 209.175 77.92C209.667 78.088 210.231 78.172 210.867 78.172C211.611 78.172 212.175 78.046 212.559 77.794C212.955 77.53 213.153 77.152 213.153 76.66C213.153 76.252 213.021 75.934 212.757 75.706C212.505 75.466 212.085 75.274 211.497 75.13L209.967 74.788C209.247 74.62 208.677 74.32 208.257 73.888C207.849 73.456 207.645 72.952 207.645 72.376C207.645 71.584 207.945 70.954 208.545 70.486C209.157 70.006 209.967 69.766 210.975 69.766C211.611 69.766 212.199 69.868 212.739 70.072C213.291 70.276 213.747 70.57 214.107 70.954L213.693 71.8C212.865 71.08 211.959 70.72 210.975 70.72C210.279 70.72 209.739 70.858 209.355 71.134C208.971 71.41 208.779 71.794 208.779 72.286C208.779 72.694 208.899 73.024 209.139 73.276C209.391 73.528 209.775 73.714 210.291 73.834L211.839 74.212C213.459 74.572 214.269 75.37 214.269 76.606C214.269 77.362 213.957 77.974 213.333 78.442C212.709 78.898 211.869 79.126 210.813 79.126ZM219.707 79.126C218.243 79.126 217.085 78.724 216.233 77.92L216.629 77.074C217.109 77.47 217.589 77.752 218.069 77.92C218.561 78.088 219.125 78.172 219.761 78.172C220.505 78.172 221.069 78.046 221.453 77.794C221.849 77.53 222.047 77.152 222.047 76.66C222.047 76.252 221.915 75.934 221.651 75.706C221.399 75.466 220.979 75.274 220.391 75.13L218.861 74.788C218.141 74.62 217.571 74.32 217.151 73.888C216.743 73.456 216.539 72.952 216.539 72.376C216.539 71.584 216.839 70.954 217.439 70.486C218.051 70.006 218.861 69.766 219.869 69.766C220.505 69.766 221.093 69.868 221.633 70.072C222.185 70.276 222.641 70.57 223.001 70.954L222.587 71.8C221.759 71.08 220.853 70.72 219.869 70.72C219.173 70.72 218.633 70.858 218.249 71.134C217.865 71.41 217.673 71.794 217.673 72.286C217.673 72.694 217.793 73.024 218.033 73.276C218.285 73.528 218.669 73.714 219.185 73.834L220.733 74.212C222.353 74.572 223.163 75.37 223.163 76.606C223.163 77.362 222.851 77.974 222.227 78.442C221.603 78.898 220.763 79.126 219.707 79.126ZM225.668 69.982H226.748V79H225.668V69.982ZM226.964 66.256V67.66H225.506V66.256H226.964ZM237.414 69.982L233.544 79H232.41L228.594 69.982H229.764L233.022 77.902L236.298 69.982H237.414ZM239.709 74.356V74.41C239.709 75.622 239.985 76.552 240.537 77.2C241.101 77.836 241.917 78.154 242.985 78.154C244.065 78.154 245.055 77.782 245.955 77.038L246.387 77.902C245.991 78.274 245.487 78.574 244.875 78.802C244.263 79.018 243.633 79.126 242.985 79.126C241.617 79.126 240.537 78.712 239.745 77.884C238.953 77.056 238.557 75.916 238.557 74.464C238.557 73.54 238.731 72.724 239.079 72.016C239.439 71.296 239.937 70.744 240.573 70.36C241.209 69.964 241.941 69.766 242.769 69.766C243.957 69.766 244.881 70.15 245.541 70.918C246.213 71.686 246.549 72.754 246.549 74.122V74.356H239.709ZM242.769 70.666C241.941 70.666 241.269 70.918 240.753 71.422C240.237 71.914 239.913 72.61 239.781 73.51H245.505C245.433 72.586 245.163 71.884 244.695 71.404C244.227 70.912 243.585 70.666 242.769 70.666ZM250.184 77.434V78.586C250.184 79.042 250.112 79.462 249.968 79.846C249.824 80.23 249.584 80.59 249.248 80.926L248.672 80.476C249.08 80.02 249.308 79.528 249.356 79H248.654V77.434H250.184ZM265.134 69.982V79H264.036V77.272C263.772 77.872 263.37 78.334 262.83 78.658C262.302 78.97 261.666 79.126 260.922 79.126C260.118 79.126 259.41 78.94 258.798 78.568C258.198 78.184 257.73 77.644 257.394 76.948C257.07 76.24 256.908 75.418 256.908 74.482C256.908 73.546 257.076 72.724 257.412 72.016C257.748 71.296 258.216 70.744 258.816 70.36C259.428 69.964 260.13 69.766 260.922 69.766C261.654 69.766 262.284 69.922 262.812 70.234C263.352 70.546 263.76 71.002 264.036 71.602V69.982H265.134ZM261.084 78.154C262.02 78.154 262.746 77.83 263.262 77.182C263.778 76.534 264.036 75.622 264.036 74.446C264.036 73.258 263.778 72.34 263.262 71.692C262.746 71.044 262.014 70.72 261.066 70.72C260.118 70.72 259.38 71.056 258.852 71.728C258.324 72.388 258.06 73.306 258.06 74.482C258.06 75.646 258.324 76.552 258.852 77.2C259.38 77.836 260.124 78.154 261.084 78.154ZM272.313 69.766C274.485 69.766 275.571 70.93 275.571 73.258V79H274.473V73.33C274.473 72.43 274.287 71.77 273.915 71.35C273.555 70.93 272.985 70.72 272.205 70.72C271.305 70.72 270.579 70.996 270.027 71.548C269.475 72.1 269.199 72.844 269.199 73.78V79H268.119V72.484C268.119 71.548 268.071 70.714 267.975 69.982H269.019L269.163 71.638C269.439 71.026 269.853 70.564 270.405 70.252C270.957 69.928 271.593 69.766 272.313 69.766ZM286.175 65.752V79H285.077V77.272C284.813 77.872 284.411 78.334 283.871 78.658C283.343 78.97 282.707 79.126 281.963 79.126C281.171 79.126 280.469 78.934 279.857 78.55C279.257 78.154 278.789 77.602 278.453 76.894C278.117 76.174 277.949 75.346 277.949 74.41C277.949 73.474 278.111 72.658 278.435 71.962C278.771 71.254 279.239 70.714 279.839 70.342C280.451 69.958 281.159 69.766 281.963 69.766C282.695 69.766 283.325 69.922 283.853 70.234C284.393 70.546 284.801 71.002 285.077 71.602V65.752H286.175ZM282.107 78.154C283.055 78.154 283.787 77.83 284.303 77.182C284.819 76.534 285.077 75.622 285.077 74.446C285.077 73.27 284.819 72.358 284.303 71.71C283.787 71.05 283.061 70.72 282.125 70.72C281.165 70.72 280.421 71.044 279.893 71.692C279.365 72.34 279.101 73.246 279.101 74.41C279.101 75.586 279.365 76.504 279.893 77.164C280.421 77.824 281.159 78.154 282.107 78.154ZM301.398 69.982V79H300.3V77.272C300.036 77.872 299.634 78.334 299.094 78.658C298.566 78.97 297.93 79.126 297.186 79.126C296.382 79.126 295.674 78.94 295.062 78.568C294.462 78.184 293.994 77.644 293.658 76.948C293.334 76.24 293.172 75.418 293.172 74.482C293.172 73.546 293.34 72.724 293.676 72.016C294.012 71.296 294.48 70.744 295.08 70.36C295.692 69.964 296.394 69.766 297.186 69.766C297.918 69.766 298.548 69.922 299.076 70.234C299.616 70.546 300.024 71.002 300.3 71.602V69.982H301.398ZM297.348 78.154C298.284 78.154 299.01 77.83 299.526 77.182C300.042 76.534 300.3 75.622 300.3 74.446C300.3 73.258 300.042 72.34 299.526 71.692C299.01 71.044 298.278 70.72 297.33 70.72C296.382 70.72 295.644 71.056 295.116 71.728C294.588 72.388 294.324 73.306 294.324 74.482C294.324 75.646 294.588 76.552 295.116 77.2C295.644 77.836 296.388 78.154 297.348 78.154ZM307.497 66.67C306.981 66.67 306.585 66.808 306.309 67.084C306.033 67.36 305.895 67.852 305.895 68.56V69.982H308.217V70.864H305.895V79H304.797V70.864H303.033V69.982H304.797V68.362C304.797 67.462 305.019 66.79 305.463 66.346C305.907 65.902 306.519 65.68 307.299 65.68C307.659 65.68 308.031 65.728 308.415 65.824V66.814C308.091 66.718 307.785 66.67 307.497 66.67ZM313.403 66.67C312.887 66.67 312.491 66.808 312.215 67.084C311.939 67.36 311.801 67.852 311.801 68.56V69.982H314.123V70.864H311.801V79H310.703V70.864H308.939V69.982H310.703V68.362C310.703 67.462 310.925 66.79 311.369 66.346C311.813 65.902 312.425 65.68 313.205 65.68C313.565 65.68 313.937 65.728 314.321 65.824V66.814C313.997 66.718 313.691 66.67 313.403 66.67ZM319.619 79.126C318.791 79.126 318.059 78.934 317.423 78.55C316.799 78.166 316.313 77.62 315.965 76.912C315.629 76.204 315.461 75.382 315.461 74.446C315.461 73.51 315.629 72.688 315.965 71.98C316.313 71.272 316.799 70.726 317.423 70.342C318.059 69.958 318.791 69.766 319.619 69.766C320.435 69.766 321.155 69.958 321.779 70.342C322.403 70.726 322.883 71.272 323.219 71.98C323.567 72.688 323.741 73.51 323.741 74.446C323.741 75.382 323.567 76.204 323.219 76.912C322.883 77.62 322.403 78.166 321.779 78.55C321.155 78.934 320.435 79.126 319.619 79.126ZM319.601 78.154C320.561 78.154 321.299 77.836 321.815 77.2C322.343 76.552 322.607 75.634 322.607 74.446C322.607 73.27 322.343 72.358 321.815 71.71C321.287 71.05 320.555 70.72 319.619 70.72C318.671 70.72 317.933 71.05 317.405 71.71C316.877 72.358 316.613 73.27 316.613 74.446C316.613 75.646 316.871 76.564 317.387 77.2C317.903 77.836 318.641 78.154 319.601 78.154ZM330.032 69.766C330.332 69.766 330.596 69.79 330.824 69.838L330.77 70.828C330.542 70.78 330.266 70.756 329.942 70.756C329.03 70.756 328.346 71.05 327.89 71.638C327.446 72.214 327.224 72.904 327.224 73.708V79H326.144V72.484C326.144 71.548 326.096 70.714 326 69.982H327.044L327.188 71.656C327.416 71.044 327.782 70.576 328.286 70.252C328.802 69.928 329.384 69.766 330.032 69.766ZM339.894 65.752V79H338.796V77.272C338.532 77.872 338.13 78.334 337.59 78.658C337.062 78.97 336.426 79.126 335.682 79.126C334.89 79.126 334.188 78.934 333.576 78.55C332.976 78.154 332.508 77.602 332.172 76.894C331.836 76.174 331.668 75.346 331.668 74.41C331.668 73.474 331.83 72.658 332.154 71.962C332.49 71.254 332.958 70.714 333.558 70.342C334.17 69.958 334.878 69.766 335.682 69.766C336.414 69.766 337.044 69.922 337.572 70.234C338.112 70.546 338.52 71.002 338.796 71.602V65.752H339.894ZM335.826 78.154C336.774 78.154 337.506 77.83 338.022 77.182C338.538 76.534 338.796 75.622 338.796 74.446C338.796 73.27 338.538 72.358 338.022 71.71C337.506 71.05 336.78 70.72 335.844 70.72C334.884 70.72 334.14 71.044 333.612 71.692C333.084 72.34 332.82 73.246 332.82 74.41C332.82 75.586 333.084 76.504 333.612 77.164C334.14 77.824 334.878 78.154 335.826 78.154ZM350.529 69.982V79H349.431V77.272C349.167 77.872 348.765 78.334 348.225 78.658C347.697 78.97 347.061 79.126 346.317 79.126C345.513 79.126 344.805 78.94 344.193 78.568C343.593 78.184 343.125 77.644 342.789 76.948C342.465 76.24 342.303 75.418 342.303 74.482C342.303 73.546 342.471 72.724 342.807 72.016C343.143 71.296 343.611 70.744 344.211 70.36C344.823 69.964 345.525 69.766 346.317 69.766C347.049 69.766 347.679 69.922 348.207 70.234C348.747 70.546 349.155 71.002 349.431 71.602V69.982H350.529ZM346.479 78.154C347.415 78.154 348.141 77.83 348.657 77.182C349.173 76.534 349.431 75.622 349.431 74.446C349.431 73.258 349.173 72.34 348.657 71.692C348.141 71.044 347.409 70.72 346.461 70.72C345.513 70.72 344.775 71.056 344.247 71.728C343.719 72.388 343.455 73.306 343.455 74.482C343.455 75.646 343.719 76.552 344.247 77.2C344.775 77.836 345.519 78.154 346.479 78.154ZM357.726 69.766C358.518 69.766 359.22 69.958 359.832 70.342C360.444 70.726 360.912 71.266 361.236 71.962C361.572 72.658 361.74 73.474 361.74 74.41C361.74 75.346 361.572 76.174 361.236 76.894C360.9 77.602 360.426 78.154 359.814 78.55C359.214 78.934 358.518 79.126 357.726 79.126C356.982 79.126 356.34 78.964 355.8 78.64C355.272 78.316 354.876 77.848 354.612 77.236V79H353.514V65.752H354.594V71.674C354.858 71.05 355.26 70.576 355.8 70.252C356.34 69.928 356.982 69.766 357.726 69.766ZM357.6 78.154C358.536 78.154 359.268 77.824 359.796 77.164C360.324 76.504 360.588 75.586 360.588 74.41C360.588 73.246 360.324 72.34 359.796 71.692C359.268 71.044 358.53 70.72 357.582 70.72C356.634 70.72 355.902 71.044 355.386 71.692C354.87 72.34 354.612 73.258 354.612 74.446C354.612 75.634 354.87 76.552 355.386 77.2C355.902 77.836 356.64 78.154 357.6 78.154ZM364.148 65.752H365.228V79H364.148V65.752ZM368.82 74.356V74.41C368.82 75.622 369.096 76.552 369.648 77.2C370.212 77.836 371.028 78.154 372.096 78.154C373.176 78.154 374.166 77.782 375.066 77.038L375.498 77.902C375.102 78.274 374.598 78.574 373.986 78.802C373.374 79.018 372.744 79.126 372.096 79.126C370.728 79.126 369.648 78.712 368.856 77.884C368.064 77.056 367.668 75.916 367.668 74.464C367.668 73.54 367.842 72.724 368.19 72.016C368.55 71.296 369.048 70.744 369.684 70.36C370.32 69.964 371.052 69.766 371.88 69.766C373.068 69.766 373.992 70.15 374.652 70.918C375.324 71.686 375.66 72.754 375.66 74.122V74.356H368.82ZM371.88 70.666C371.052 70.666 370.38 70.918 369.864 71.422C369.348 71.914 369.024 72.61 368.892 73.51H374.616C374.544 72.586 374.274 71.884 373.806 71.404C373.338 70.912 372.696 70.666 371.88 70.666ZM5.688 97.766C7.86 97.766 8.946 98.93 8.946 101.258V107H7.848V101.33C7.848 100.43 7.662 99.77 7.29 99.35C6.93 98.93 6.36 98.72 5.58 98.72C4.68 98.72 3.954 98.996 3.402 99.548C2.85 100.1 2.574 100.844 2.574 101.78V107H1.494V93.752H2.574V99.548C2.862 98.96 3.276 98.516 3.816 98.216C4.356 97.916 4.98 97.766 5.688 97.766ZM12.4763 102.356V102.41C12.4763 103.622 12.7523 104.552 13.3043 105.2C13.8683 105.836 14.6843 106.154 15.7523 106.154C16.8323 106.154 17.8223 105.782 18.7223 105.038L19.1543 105.902C18.7583 106.274 18.2543 106.574 17.6423 106.802C17.0303 107.018 16.4003 107.126 15.7523 107.126C14.3843 107.126 13.3043 106.712 12.5123 105.884C11.7203 105.056 11.3243 103.916 11.3243 102.464C11.3243 101.54 11.4983 100.724 11.8463 100.016C12.2063 99.296 12.7043 98.744 13.3403 98.36C13.9763 97.964 14.7083 97.766 15.5363 97.766C16.7243 97.766 17.6483 98.15 18.3083 98.918C18.9803 99.686 19.3163 100.754 19.3163 102.122V102.356H12.4763ZM15.5363 98.666C14.7083 98.666 14.0363 98.918 13.5203 99.422C13.0043 99.914 12.6803 100.61 12.5483 101.51H18.2723C18.2003 100.586 17.9303 99.884 17.4623 99.404C16.9943 98.912 16.3523 98.666 15.5363 98.666ZM29.3237 97.982V107H28.2257V105.272C27.9617 105.872 27.5597 106.334 27.0197 106.658C26.4917 106.97 25.8557 107.126 25.1117 107.126C24.3077 107.126 23.5997 106.94 22.9877 106.568C22.3877 106.184 21.9197 105.644 21.5837 104.948C21.2597 104.24 21.0977 103.418 21.0977 102.482C21.0977 101.546 21.2657 100.724 21.6017 100.016C21.9377 99.296 22.4057 98.744 23.0057 98.36C23.6177 97.964 24.3197 97.766 25.1117 97.766C25.8437 97.766 26.4737 97.922 27.0017 98.234C27.5417 98.546 27.9497 99.002 28.2257 99.602V97.982H29.3237ZM25.2737 106.154C26.2097 106.154 26.9357 105.83 27.4517 105.182C27.9677 104.534 28.2257 103.622 28.2257 102.446C28.2257 101.258 27.9677 100.34 27.4517 99.692C26.9357 99.044 26.2037 98.72 25.2557 98.72C24.3077 98.72 23.5697 99.056 23.0417 99.728C22.5137 100.388 22.2497 101.306 22.2497 102.482C22.2497 103.646 22.5137 104.552 23.0417 105.2C23.5697 105.836 24.3137 106.154 25.2737 106.154ZM32.3085 93.752H33.3885V107H32.3085V93.752ZM37.9342 98.864V104.228C37.9342 104.948 38.0722 105.446 38.3482 105.722C38.6242 105.998 39.0322 106.136 39.5722 106.136C39.9082 106.136 40.2322 106.082 40.5442 105.974V106.964C40.1602 107.06 39.7702 107.108 39.3742 107.108C38.5822 107.108 37.9582 106.886 37.5022 106.442C37.0582 105.998 36.8362 105.332 36.8362 104.444V98.864H35.0542V97.982H36.8362V95.588L37.9342 95.174V97.982H40.5982V98.864H37.9342ZM46.6626 97.766C48.8346 97.766 49.9206 98.93 49.9206 101.258V107H48.8226V101.33C48.8226 100.43 48.6366 99.77 48.2646 99.35C47.9046 98.93 47.3346 98.72 46.5546 98.72C45.6546 98.72 44.9286 98.996 44.3766 99.548C43.8246 100.1 43.5486 100.844 43.5486 101.78V107H42.4686V93.752H43.5486V99.548C43.8366 98.96 44.2506 98.516 44.7906 98.216C45.3306 97.916 45.9546 97.766 46.6626 97.766ZM56.5289 107.126C55.6769 107.126 54.9329 106.934 54.2969 106.55C53.6609 106.166 53.1689 105.626 52.8209 104.93C52.4729 104.222 52.2989 103.406 52.2989 102.482C52.2989 101.546 52.4729 100.724 52.8209 100.016C53.1689 99.296 53.6669 98.744 54.3149 98.36C54.9629 97.964 55.7129 97.766 56.5649 97.766C57.1769 97.766 57.7589 97.874 58.3109 98.09C58.8749 98.294 59.3369 98.582 59.6969 98.954L59.2649 99.818C58.7969 99.434 58.3469 99.158 57.9149 98.99C57.4949 98.81 57.0569 98.72 56.6009 98.72C55.6289 98.72 54.8609 99.056 54.2969 99.728C53.7329 100.388 53.4509 101.306 53.4509 102.482C53.4509 103.634 53.7269 104.534 54.2789 105.182C54.8429 105.83 55.6169 106.154 56.6009 106.154C57.0569 106.154 57.4949 106.07 57.9149 105.902C58.3469 105.722 58.7969 105.446 59.2649 105.074L59.6969 105.92C59.3129 106.292 58.8329 106.586 58.2569 106.802C57.6929 107.018 57.1169 107.126 56.5289 107.126ZM69.3491 97.982V107H68.2511V105.272C67.9871 105.872 67.5851 106.334 67.0451 106.658C66.5171 106.97 65.8811 107.126 65.1371 107.126C64.3331 107.126 63.6251 106.94 63.0131 106.568C62.4131 106.184 61.9451 105.644 61.6091 104.948C61.2851 104.24 61.1231 103.418 61.1231 102.482C61.1231 101.546 61.2911 100.724 61.6271 100.016C61.9631 99.296 62.4311 98.744 63.0311 98.36C63.6431 97.964 64.3451 97.766 65.1371 97.766C65.8691 97.766 66.4991 97.922 67.0271 98.234C67.5671 98.546 67.9751 99.002 68.2511 99.602V97.982H69.3491ZM65.2991 106.154C66.2351 106.154 66.9611 105.83 67.4771 105.182C67.9931 104.534 68.2511 103.622 68.2511 102.446C68.2511 101.258 67.9931 100.34 67.4771 99.692C66.9611 99.044 66.2291 98.72 65.2811 98.72C64.3331 98.72 63.5951 99.056 63.0671 99.728C62.5391 100.388 62.2751 101.306 62.2751 102.482C62.2751 103.646 62.5391 104.552 63.0671 105.2C63.5951 105.836 64.3391 106.154 65.2991 106.154ZM76.2218 97.766C76.5218 97.766 76.7858 97.79 77.0138 97.838L76.9598 98.828C76.7318 98.78 76.4558 98.756 76.1318 98.756C75.2198 98.756 74.5358 99.05 74.0798 99.638C73.6358 100.214 73.4138 100.904 73.4138 101.708V107H72.3338V100.484C72.3338 99.548 72.2858 98.714 72.1898 97.982H73.2338L73.3778 99.656C73.6058 99.044 73.9718 98.576 74.4758 98.252C74.9918 97.928 75.5738 97.766 76.2218 97.766ZM79.0095 102.356V102.41C79.0095 103.622 79.2855 104.552 79.8375 105.2C80.4015 105.836 81.2175 106.154 82.2855 106.154C83.3655 106.154 84.3555 105.782 85.2555 105.038L85.6875 105.902C85.2915 106.274 84.7875 106.574 84.1755 106.802C83.5635 107.018 82.9335 107.126 82.2855 107.126C80.9175 107.126 79.8375 106.712 79.0455 105.884C78.2535 105.056 77.8575 103.916 77.8575 102.464C77.8575 101.54 78.0315 100.724 78.3795 100.016C78.7395 99.296 79.2375 98.744 79.8735 98.36C80.5095 97.964 81.2415 97.766 82.0695 97.766C83.2575 97.766 84.1815 98.15 84.8415 98.918C85.5135 99.686 85.8495 100.754 85.8495 102.122V102.356H79.0095ZM82.0695 98.666C81.2415 98.666 80.5695 98.918 80.0535 99.422C79.5375 99.914 79.2135 100.61 79.0815 101.51H84.8055C84.7335 100.586 84.4635 99.884 83.9955 99.404C83.5275 98.912 82.8855 98.666 82.0695 98.666ZM89.4849 105.434V106.586C89.4849 107.042 89.4129 107.462 89.2689 107.846C89.1249 108.23 88.8849 108.59 88.5489 108.926L87.9729 108.476C88.3809 108.02 88.6089 107.528 88.6569 107H87.9549V105.434H89.4849ZM104.435 97.982V107H103.337V105.272C103.073 105.872 102.671 106.334 102.131 106.658C101.603 106.97 100.967 107.126 100.223 107.126C99.419 107.126 98.711 106.94 98.099 106.568C97.499 106.184 97.031 105.644 96.695 104.948C96.371 104.24 96.209 103.418 96.209 102.482C96.209 101.546 96.377 100.724 96.713 100.016C97.049 99.296 97.517 98.744 98.117 98.36C98.729 97.964 99.431 97.766 100.223 97.766C100.955 97.766 101.585 97.922 102.113 98.234C102.653 98.546 103.061 99.002 103.337 99.602V97.982H104.435ZM100.385 106.154C101.321 106.154 102.047 105.83 102.563 105.182C103.079 104.534 103.337 103.622 103.337 102.446C103.337 101.258 103.079 100.34 102.563 99.692C102.047 99.044 101.315 98.72 100.367 98.72C99.419 98.72 98.681 99.056 98.153 99.728C97.625 100.388 97.361 101.306 97.361 102.482C97.361 103.646 97.625 104.552 98.153 105.2C98.681 105.836 99.425 106.154 100.385 106.154ZM111.074 107.126C110.222 107.126 109.478 106.934 108.842 106.55C108.206 106.166 107.714 105.626 107.366 104.93C107.018 104.222 106.844 103.406 106.844 102.482C106.844 101.546 107.018 100.724 107.366 100.016C107.714 99.296 108.212 98.744 108.86 98.36C109.508 97.964 110.258 97.766 111.11 97.766C111.722 97.766 112.304 97.874 112.856 98.09C113.42 98.294 113.882 98.582 114.242 98.954L113.81 99.818C113.342 99.434 112.892 99.158 112.46 98.99C112.04 98.81 111.602 98.72 111.146 98.72C110.174 98.72 109.406 99.056 108.842 99.728C108.278 100.388 107.996 101.306 107.996 102.482C107.996 103.634 108.272 104.534 108.824 105.182C109.388 105.83 110.162 106.154 111.146 106.154C111.602 106.154 112.04 106.07 112.46 105.902C112.892 105.722 113.342 105.446 113.81 105.074L114.242 105.92C113.858 106.292 113.378 106.586 112.802 106.802C112.238 107.018 111.662 107.126 111.074 107.126ZM119.898 107.126C119.046 107.126 118.302 106.934 117.666 106.55C117.03 106.166 116.538 105.626 116.19 104.93C115.842 104.222 115.668 103.406 115.668 102.482C115.668 101.546 115.842 100.724 116.19 100.016C116.538 99.296 117.036 98.744 117.684 98.36C118.332 97.964 119.082 97.766 119.934 97.766C120.546 97.766 121.128 97.874 121.68 98.09C122.244 98.294 122.706 98.582 123.066 98.954L122.634 99.818C122.166 99.434 121.716 99.158 121.284 98.99C120.864 98.81 120.426 98.72 119.97 98.72C118.998 98.72 118.23 99.056 117.666 99.728C117.102 100.388 116.82 101.306 116.82 102.482C116.82 103.634 117.096 104.534 117.648 105.182C118.212 105.83 118.986 106.154 119.97 106.154C120.426 106.154 120.864 106.07 121.284 105.902C121.716 105.722 122.166 105.446 122.634 105.074L123.066 105.92C122.682 106.292 122.202 106.586 121.626 106.802C121.062 107.018 120.486 107.126 119.898 107.126ZM125.644 102.356V102.41C125.644 103.622 125.92 104.552 126.472 105.2C127.036 105.836 127.852 106.154 128.92 106.154C130 106.154 130.99 105.782 131.89 105.038L132.322 105.902C131.926 106.274 131.422 106.574 130.81 106.802C130.198 107.018 129.568 107.126 128.92 107.126C127.552 107.126 126.472 106.712 125.68 105.884C124.888 105.056 124.492 103.916 124.492 102.464C124.492 101.54 124.666 100.724 125.014 100.016C125.374 99.296 125.872 98.744 126.508 98.36C127.144 97.964 127.876 97.766 128.704 97.766C129.892 97.766 130.816 98.15 131.476 98.918C132.148 99.686 132.484 100.754 132.484 102.122V102.356H125.644ZM128.704 98.666C127.876 98.666 127.204 98.918 126.688 99.422C126.172 99.914 125.848 100.61 125.716 101.51H131.44C131.368 100.586 131.098 99.884 130.63 99.404C130.162 98.912 129.52 98.666 128.704 98.666ZM137.776 107.126C136.312 107.126 135.154 106.724 134.302 105.92L134.698 105.074C135.178 105.47 135.658 105.752 136.138 105.92C136.63 106.088 137.194 106.172 137.83 106.172C138.574 106.172 139.138 106.046 139.522 105.794C139.918 105.53 140.116 105.152 140.116 104.66C140.116 104.252 139.984 103.934 139.72 103.706C139.468 103.466 139.048 103.274 138.46 103.13L136.93 102.788C136.21 102.62 135.64 102.32 135.22 101.888C134.812 101.456 134.608 100.952 134.608 100.376C134.608 99.584 134.908 98.954 135.508 98.486C136.12 98.006 136.93 97.766 137.938 97.766C138.574 97.766 139.162 97.868 139.702 98.072C140.254 98.276 140.71 98.57 141.07 98.954L140.656 99.8C139.828 99.08 138.922 98.72 137.938 98.72C137.242 98.72 136.702 98.858 136.318 99.134C135.934 99.41 135.742 99.794 135.742 100.286C135.742 100.694 135.862 101.024 136.102 101.276C136.354 101.528 136.738 101.714 137.254 101.834L138.802 102.212C140.422 102.572 141.232 103.37 141.232 104.606C141.232 105.362 140.92 105.974 140.296 106.442C139.672 106.898 138.832 107.126 137.776 107.126ZM146.67 107.126C145.206 107.126 144.048 106.724 143.196 105.92L143.592 105.074C144.072 105.47 144.552 105.752 145.032 105.92C145.524 106.088 146.088 106.172 146.724 106.172C147.468 106.172 148.032 106.046 148.416 105.794C148.812 105.53 149.01 105.152 149.01 104.66C149.01 104.252 148.878 103.934 148.614 103.706C148.362 103.466 147.942 103.274 147.354 103.13L145.824 102.788C145.104 102.62 144.534 102.32 144.114 101.888C143.706 101.456 143.502 100.952 143.502 100.376C143.502 99.584 143.802 98.954 144.402 98.486C145.014 98.006 145.824 97.766 146.832 97.766C147.468 97.766 148.056 97.868 148.596 98.072C149.148 98.276 149.604 98.57 149.964 98.954L149.55 99.8C148.722 99.08 147.816 98.72 146.832 98.72C146.136 98.72 145.596 98.858 145.212 99.134C144.828 99.41 144.636 99.794 144.636 100.286C144.636 100.694 144.756 101.024 144.996 101.276C145.248 101.528 145.632 101.714 146.148 101.834L147.696 102.212C149.316 102.572 150.126 103.37 150.126 104.606C150.126 105.362 149.814 105.974 149.19 106.442C148.566 106.898 147.726 107.126 146.67 107.126ZM152.631 97.982H153.711V107H152.631V97.982ZM153.927 94.256V95.66H152.469V94.256H153.927ZM160.938 97.766C161.73 97.766 162.432 97.958 163.044 98.342C163.656 98.726 164.124 99.266 164.448 99.962C164.784 100.658 164.952 101.474 164.952 102.41C164.952 103.346 164.784 104.174 164.448 104.894C164.112 105.602 163.638 106.154 163.026 106.55C162.426 106.934 161.73 107.126 160.938 107.126C160.194 107.126 159.552 106.964 159.012 106.64C158.484 106.316 158.088 105.848 157.824 105.236V107H156.726V93.752H157.806V99.674C158.07 99.05 158.472 98.576 159.012 98.252C159.552 97.928 160.194 97.766 160.938 97.766ZM160.812 106.154C161.748 106.154 162.48 105.824 163.008 105.164C163.536 104.504 163.8 103.586 163.8 102.41C163.8 101.246 163.536 100.34 163.008 99.692C162.48 99.044 161.742 98.72 160.794 98.72C159.846 98.72 159.114 99.044 158.598 99.692C158.082 100.34 157.824 101.258 157.824 102.446C157.824 103.634 158.082 104.552 158.598 105.2C159.114 105.836 159.852 106.154 160.812 106.154ZM167.361 93.752H168.441V107H167.361V93.752ZM172.033 102.356V102.41C172.033 103.622 172.309 104.552 172.861 105.2C173.425 105.836 174.241 106.154 175.309 106.154C176.389 106.154 177.379 105.782 178.279 105.038L178.711 105.902C178.315 106.274 177.811 106.574 177.199 106.802C176.587 107.018 175.957 107.126 175.309 107.126C173.941 107.126 172.861 106.712 172.069 105.884C171.277 105.056 170.881 103.916 170.881 102.464C170.881 101.54 171.055 100.724 171.403 100.016C171.763 99.296 172.261 98.744 172.897 98.36C173.533 97.964 174.265 97.766 175.093 97.766C176.281 97.766 177.205 98.15 177.865 98.918C178.537 99.686 178.873 100.754 178.873 102.122V102.356H172.033ZM175.093 98.666C174.265 98.666 173.593 98.918 173.077 99.422C172.561 99.914 172.237 100.61 172.105 101.51H177.829C177.757 100.586 177.487 99.884 177.019 99.404C176.551 98.912 175.909 98.666 175.093 98.666ZM189.4 107.126C188.572 107.126 187.84 106.934 187.204 106.55C186.58 106.166 186.094 105.62 185.746 104.912C185.41 104.204 185.242 103.382 185.242 102.446C185.242 101.51 185.41 100.688 185.746 99.98C186.094 99.272 186.58 98.726 187.204 98.342C187.84 97.958 188.572 97.766 189.4 97.766C190.216 97.766 190.936 97.958 191.56 98.342C192.184 98.726 192.664 99.272 193 99.98C193.348 100.688 193.522 101.51 193.522 102.446C193.522 103.382 193.348 104.204 193 104.912C192.664 105.62 192.184 106.166 191.56 106.55C190.936 106.934 190.216 107.126 189.4 107.126ZM189.382 106.154C190.342 106.154 191.08 105.836 191.596 105.2C192.124 104.552 192.388 103.634 192.388 102.446C192.388 101.27 192.124 100.358 191.596 99.71C191.068 99.05 190.336 98.72 189.4 98.72C188.452 98.72 187.714 99.05 187.186 99.71C186.658 100.358 186.394 101.27 186.394 102.446C186.394 103.646 186.652 104.564 187.168 105.2C187.684 105.836 188.422 106.154 189.382 106.154ZM200.12 97.766C202.292 97.766 203.378 98.93 203.378 101.258V107H202.28V101.33C202.28 100.43 202.094 99.77 201.722 99.35C201.362 98.93 200.792 98.72 200.012 98.72C199.112 98.72 198.386 98.996 197.834 99.548C197.282 100.1 197.006 100.844 197.006 101.78V107H195.926V100.484C195.926 99.548 195.878 98.714 195.782 97.982H196.826L196.97 99.638C197.246 99.026 197.66 98.564 198.212 98.252C198.764 97.928 199.4 97.766 200.12 97.766ZM220.64 97.766C222.632 97.766 223.628 98.93 223.628 101.258V107H222.53V101.33C222.53 100.418 222.368 99.758 222.044 99.35C221.72 98.93 221.204 98.72 220.496 98.72C219.668 98.72 219.014 98.996 218.534 99.548C218.066 100.1 217.832 100.85 217.832 101.798V107H216.734V101.33C216.734 100.418 216.566 99.758 216.23 99.35C215.906 98.93 215.39 98.72 214.682 98.72C213.866 98.72 213.212 98.996 212.72 99.548C212.24 100.1 212 100.85 212 101.798V107H210.92V100.484C210.92 99.548 210.872 98.714 210.776 97.982H211.82L211.964 99.602C212.216 99.002 212.588 98.546 213.08 98.234C213.584 97.922 214.166 97.766 214.826 97.766C216.278 97.766 217.208 98.354 217.616 99.53C217.868 98.978 218.258 98.546 218.786 98.234C219.326 97.922 219.944 97.766 220.64 97.766ZM230.146 107.126C229.318 107.126 228.586 106.934 227.95 106.55C227.326 106.166 226.84 105.62 226.492 104.912C226.156 104.204 225.988 103.382 225.988 102.446C225.988 101.51 226.156 100.688 226.492 99.98C226.84 99.272 227.326 98.726 227.95 98.342C228.586 97.958 229.318 97.766 230.146 97.766C230.962 97.766 231.682 97.958 232.306 98.342C232.93 98.726 233.41 99.272 233.746 99.98C234.094 100.688 234.268 101.51 234.268 102.446C234.268 103.382 234.094 104.204 233.746 104.912C233.41 105.62 232.93 106.166 232.306 106.55C231.682 106.934 230.962 107.126 230.146 107.126ZM230.128 106.154C231.088 106.154 231.826 105.836 232.342 105.2C232.87 104.552 233.134 103.634 233.134 102.446C233.134 101.27 232.87 100.358 232.342 99.71C231.814 99.05 231.082 98.72 230.146 98.72C229.198 98.72 228.46 99.05 227.932 99.71C227.404 100.358 227.14 101.27 227.14 102.446C227.14 103.646 227.398 104.564 227.914 105.2C228.43 105.836 229.168 106.154 230.128 106.154ZM240.884 97.766C241.676 97.766 242.378 97.958 242.99 98.342C243.602 98.726 244.07 99.266 244.394 99.962C244.73 100.658 244.898 101.474 244.898 102.41C244.898 103.346 244.73 104.174 244.394 104.894C244.058 105.602 243.584 106.154 242.972 106.55C242.372 106.934 241.676 107.126 240.884 107.126C240.14 107.126 239.498 106.964 238.958 106.64C238.43 106.316 238.034 105.848 237.77 105.236V107H236.672V93.752H237.752V99.674C238.016 99.05 238.418 98.576 238.958 98.252C239.498 97.928 240.14 97.766 240.884 97.766ZM240.758 106.154C241.694 106.154 242.426 105.824 242.954 105.164C243.482 104.504 243.746 103.586 243.746 102.41C243.746 101.246 243.482 100.34 242.954 99.692C242.426 99.044 241.688 98.72 240.74 98.72C239.792 98.72 239.06 99.044 238.544 99.692C238.028 100.34 237.77 101.258 237.77 102.446C237.77 103.634 238.028 104.552 238.544 105.2C239.06 105.836 239.798 106.154 240.758 106.154ZM247.307 97.982H248.387V107H247.307V97.982ZM248.603 94.256V95.66H247.145V94.256H248.603ZM251.402 93.752H252.482V107H251.402V93.752ZM256.074 102.356V102.41C256.074 103.622 256.35 104.552 256.902 105.2C257.466 105.836 258.282 106.154 259.35 106.154C260.43 106.154 261.42 105.782 262.32 105.038L262.752 105.902C262.356 106.274 261.852 106.574 261.24 106.802C260.628 107.018 259.998 107.126 259.35 107.126C257.982 107.126 256.902 106.712 256.11 105.884C255.318 105.056 254.922 103.916 254.922 102.464C254.922 101.54 255.096 100.724 255.444 100.016C255.804 99.296 256.302 98.744 256.938 98.36C257.574 97.964 258.306 97.766 259.134 97.766C260.322 97.766 261.246 98.15 261.906 98.918C262.578 99.686 262.914 100.754 262.914 102.122V102.356H256.074ZM259.134 98.666C258.306 98.666 257.634 98.918 257.118 99.422C256.602 99.914 256.278 100.61 256.146 101.51H261.87C261.798 100.586 261.528 99.884 261.06 99.404C260.592 98.912 259.95 98.666 259.134 98.666ZM277.509 97.982V107H276.411V105.272C276.147 105.872 275.745 106.334 275.205 106.658C274.677 106.97 274.041 107.126 273.297 107.126C272.493 107.126 271.785 106.94 271.173 106.568C270.573 106.184 270.105 105.644 269.769 104.948C269.445 104.24 269.283 103.418 269.283 102.482C269.283 101.546 269.451 100.724 269.787 100.016C270.123 99.296 270.591 98.744 271.191 98.36C271.803 97.964 272.505 97.766 273.297 97.766C274.029 97.766 274.659 97.922 275.187 98.234C275.727 98.546 276.135 99.002 276.411 99.602V97.982H277.509ZM273.459 106.154C274.395 106.154 275.121 105.83 275.637 105.182C276.153 104.534 276.411 103.622 276.411 102.446C276.411 101.258 276.153 100.34 275.637 99.692C275.121 99.044 274.389 98.72 273.441 98.72C272.493 98.72 271.755 99.056 271.227 99.728C270.699 100.388 270.435 101.306 270.435 102.482C270.435 103.646 270.699 104.552 271.227 105.2C271.755 105.836 272.499 106.154 273.459 106.154ZM284.688 97.766C286.86 97.766 287.946 98.93 287.946 101.258V107H286.848V101.33C286.848 100.43 286.662 99.77 286.29 99.35C285.93 98.93 285.36 98.72 284.58 98.72C283.68 98.72 282.954 98.996 282.402 99.548C281.85 100.1 281.574 100.844 281.574 101.78V107H280.494V100.484C280.494 99.548 280.446 98.714 280.35 97.982H281.394L281.538 99.638C281.814 99.026 282.228 98.564 282.78 98.252C283.332 97.928 283.968 97.766 284.688 97.766ZM298.55 93.752V107H297.452V105.272C297.188 105.872 296.786 106.334 296.246 106.658C295.718 106.97 295.082 107.126 294.338 107.126C293.546 107.126 292.844 106.934 292.232 106.55C291.632 106.154 291.164 105.602 290.828 104.894C290.492 104.174 290.324 103.346 290.324 102.41C290.324 101.474 290.486 100.658 290.81 99.962C291.146 99.254 291.614 98.714 292.214 98.342C292.826 97.958 293.534 97.766 294.338 97.766C295.07 97.766 295.7 97.922 296.228 98.234C296.768 98.546 297.176 99.002 297.452 99.602V93.752H298.55ZM294.482 106.154C295.43 106.154 296.162 105.83 296.678 105.182C297.194 104.534 297.452 103.622 297.452 102.446C297.452 101.27 297.194 100.358 296.678 99.71C296.162 99.05 295.436 98.72 294.5 98.72C293.54 98.72 292.796 99.044 292.268 99.692C291.74 100.34 291.476 101.246 291.476 102.41C291.476 103.586 291.74 104.504 292.268 105.164C292.796 105.824 293.534 106.154 294.482 106.154ZM309.705 107.126C308.877 107.126 308.145 106.934 307.509 106.55C306.885 106.166 306.399 105.62 306.051 104.912C305.715 104.204 305.547 103.382 305.547 102.446C305.547 101.51 305.715 100.688 306.051 99.98C306.399 99.272 306.885 98.726 307.509 98.342C308.145 97.958 308.877 97.766 309.705 97.766C310.521 97.766 311.241 97.958 311.865 98.342C312.489 98.726 312.969 99.272 313.305 99.98C313.653 100.688 313.827 101.51 313.827 102.446C313.827 103.382 313.653 104.204 313.305 104.912C312.969 105.62 312.489 106.166 311.865 106.55C311.241 106.934 310.521 107.126 309.705 107.126ZM309.687 106.154C310.647 106.154 311.385 105.836 311.901 105.2C312.429 104.552 312.693 103.634 312.693 102.446C312.693 101.27 312.429 100.358 311.901 99.71C311.373 99.05 310.641 98.72 309.705 98.72C308.757 98.72 308.019 99.05 307.491 99.71C306.963 100.358 306.699 101.27 306.699 102.446C306.699 103.646 306.957 104.564 307.473 105.2C307.989 105.836 308.727 106.154 309.687 106.154ZM320.424 97.766C322.596 97.766 323.682 98.93 323.682 101.258V107H322.584V101.33C322.584 100.43 322.398 99.77 322.026 99.35C321.666 98.93 321.096 98.72 320.316 98.72C319.416 98.72 318.69 98.996 318.138 99.548C317.586 100.1 317.31 100.844 317.31 101.78V107H316.23V100.484C316.23 99.548 316.182 98.714 316.086 97.982H317.13L317.274 99.638C317.55 99.026 317.964 98.564 318.516 98.252C319.068 97.928 319.704 97.766 320.424 97.766ZM326.637 93.752H327.717V107H326.637V93.752ZM330.732 97.982H331.812V107H330.732V97.982ZM332.028 94.256V95.66H330.57V94.256H332.028ZM339.022 97.766C341.194 97.766 342.28 98.93 342.28 101.258V107H341.182V101.33C341.182 100.43 340.996 99.77 340.624 99.35C340.264 98.93 339.694 98.72 338.914 98.72C338.014 98.72 337.288 98.996 336.736 99.548C336.184 100.1 335.908 100.844 335.908 101.78V107H334.828V100.484C334.828 99.548 334.78 98.714 334.684 97.982H335.728L335.872 99.638C336.148 99.026 336.562 98.564 337.114 98.252C337.666 97.928 338.302 97.766 339.022 97.766ZM345.81 102.356V102.41C345.81 103.622 346.086 104.552 346.638 105.2C347.202 105.836 348.018 106.154 349.086 106.154C350.166 106.154 351.156 105.782 352.056 105.038L352.488 105.902C352.092 106.274 351.588 106.574 350.976 106.802C350.364 107.018 349.734 107.126 349.086 107.126C347.718 107.126 346.638 106.712 345.846 105.884C345.054 105.056 344.658 103.916 344.658 102.464C344.658 101.54 344.832 100.724 345.18 100.016C345.54 99.296 346.038 98.744 346.674 98.36C347.31 97.964 348.042 97.766 348.87 97.766C350.058 97.766 350.982 98.15 351.642 98.918C352.314 99.686 352.65 100.754 352.65 102.122V102.356H345.81ZM348.87 98.666C348.042 98.666 347.37 98.918 346.854 99.422C346.338 99.914 346.014 100.61 345.882 101.51H351.606C351.534 100.586 351.264 99.884 350.796 99.404C350.328 98.912 349.686 98.666 348.87 98.666ZM4.608 122.67C4.092 122.67 3.696 122.808 3.42 123.084C3.144 123.36 3.006 123.852 3.006 124.56V125.982H5.328V126.864H3.006V135H1.908V126.864H0.144V125.982H1.908V124.362C1.908 123.462 2.13 122.79 2.574 122.346C3.018 121.902 3.63 121.68 4.41 121.68C4.77 121.68 5.142 121.728 5.526 121.824V122.814C5.202 122.718 4.896 122.67 4.608 122.67ZM10.824 135.126C9.99605 135.126 9.26405 134.934 8.62805 134.55C8.00405 134.166 7.51805 133.62 7.17005 132.912C6.83405 132.204 6.66605 131.382 6.66605 130.446C6.66605 129.51 6.83405 128.688 7.17005 127.98C7.51805 127.272 8.00405 126.726 8.62805 126.342C9.26405 125.958 9.99605 125.766 10.824 125.766C11.64 125.766 12.36 125.958 12.984 126.342C13.608 126.726 14.088 127.272 14.424 127.98C14.772 128.688 14.946 129.51 14.946 130.446C14.946 131.382 14.772 132.204 14.424 132.912C14.088 133.62 13.608 134.166 12.984 134.55C12.36 134.934 11.64 135.126 10.824 135.126ZM10.806 134.154C11.766 134.154 12.504 133.836 13.02 133.2C13.548 132.552 13.812 131.634 13.812 130.446C13.812 129.27 13.548 128.358 13.02 127.71C12.492 127.05 11.76 126.72 10.824 126.72C9.87605 126.72 9.13805 127.05 8.61005 127.71C8.08205 128.358 7.81805 129.27 7.81805 130.446C7.81805 131.646 8.07605 132.564 8.59205 133.2C9.10805 133.836 9.84605 134.154 10.806 134.154ZM21.2375 125.766C21.5375 125.766 21.8015 125.79 22.0295 125.838L21.9755 126.828C21.7475 126.78 21.4715 126.756 21.1475 126.756C20.2355 126.756 19.5515 127.05 19.0955 127.638C18.6515 128.214 18.4295 128.904 18.4295 129.708V135H17.3495V128.484C17.3495 127.548 17.3015 126.714 17.2055 125.982H18.2495L18.3935 127.656C18.6215 127.044 18.9875 126.576 19.4915 126.252C20.0075 125.928 20.5895 125.766 21.2375 125.766ZM28.7888 130.356V130.41C28.7888 131.622 29.0648 132.552 29.6168 133.2C30.1808 133.836 30.9968 134.154 32.0648 134.154C33.1448 134.154 34.1348 133.782 35.0348 133.038L35.4668 133.902C35.0708 134.274 34.5668 134.574 33.9548 134.802C33.3428 135.018 32.7128 135.126 32.0648 135.126C30.6968 135.126 29.6168 134.712 28.8248 133.884C28.0328 133.056 27.6368 131.916 27.6368 130.464C27.6368 129.54 27.8108 128.724 28.1588 128.016C28.5188 127.296 29.0168 126.744 29.6528 126.36C30.2888 125.964 31.0208 125.766 31.8488 125.766C33.0368 125.766 33.9608 126.15 34.6208 126.918C35.2928 127.686 35.6288 128.754 35.6288 130.122V130.356H28.7888ZM31.8488 126.666C31.0208 126.666 30.3488 126.918 29.8328 127.422C29.3168 127.914 28.9928 128.61 28.8608 129.51H34.5848C34.5128 128.586 34.2428 127.884 33.7748 127.404C33.3068 126.912 32.6648 126.666 31.8488 126.666ZM45.5483 125.982L41.6783 135H40.5443L36.7283 125.982H37.8983L41.1563 133.902L44.4323 125.982H45.5483ZM47.8434 130.356V130.41C47.8434 131.622 48.1194 132.552 48.6714 133.2C49.2354 133.836 50.0514 134.154 51.1194 134.154C52.1994 134.154 53.1894 133.782 54.0894 133.038L54.5214 133.902C54.1254 134.274 53.6214 134.574 53.0094 134.802C52.3974 135.018 51.7674 135.126 51.1194 135.126C49.7514 135.126 48.6714 134.712 47.8794 133.884C47.0874 133.056 46.6914 131.916 46.6914 130.464C46.6914 129.54 46.8654 128.724 47.2134 128.016C47.5734 127.296 48.0714 126.744 48.7074 126.36C49.3434 125.964 50.0754 125.766 50.9034 125.766C52.0914 125.766 53.0154 126.15 53.6754 126.918C54.3474 127.686 54.6834 128.754 54.6834 130.122V130.356H47.8434ZM50.9034 126.666C50.0754 126.666 49.4034 126.918 48.8874 127.422C48.3714 127.914 48.0474 128.61 47.9154 129.51H53.6394C53.5674 128.586 53.2974 127.884 52.8294 127.404C52.3614 126.912 51.7194 126.666 50.9034 126.666ZM60.9289 125.766C61.2289 125.766 61.4929 125.79 61.7209 125.838L61.6669 126.828C61.4389 126.78 61.1629 126.756 60.8389 126.756C59.9269 126.756 59.2429 127.05 58.7869 127.638C58.3429 128.214 58.1209 128.904 58.1209 129.708V135H57.0409V128.484C57.0409 127.548 56.9929 126.714 56.8969 125.982H57.9409L58.0849 127.656C58.3129 127.044 58.6789 126.576 59.1829 126.252C59.6989 125.928 60.2809 125.766 60.9289 125.766ZM71.5112 125.982L67.2632 135.936C66.8432 136.92 66.3152 137.64 65.6792 138.096C65.0552 138.564 64.2692 138.894 63.3212 139.086L63.1052 138.222C63.9692 138.018 64.6172 137.754 65.0492 137.43C65.4932 137.106 65.8652 136.596 66.1652 135.9L66.5432 135.018L62.6912 125.982H63.8612L67.1192 133.902L70.3952 125.982H71.5112ZM76.8123 135.126C75.9843 135.126 75.2523 134.934 74.6163 134.55C73.9923 134.166 73.5063 133.62 73.1583 132.912C72.8223 132.204 72.6543 131.382 72.6543 130.446C72.6543 129.51 72.8223 128.688 73.1583 127.98C73.5063 127.272 73.9923 126.726 74.6163 126.342C75.2523 125.958 75.9843 125.766 76.8123 125.766C77.6283 125.766 78.3483 125.958 78.9723 126.342C79.5963 126.726 80.0763 127.272 80.4123 127.98C80.7603 128.688 80.9343 129.51 80.9343 130.446C80.9343 131.382 80.7603 132.204 80.4123 132.912C80.0763 133.62 79.5963 134.166 78.9723 134.55C78.3483 134.934 77.6283 135.126 76.8123 135.126ZM76.7943 134.154C77.7543 134.154 78.4923 133.836 79.0083 133.2C79.5363 132.552 79.8003 131.634 79.8003 130.446C79.8003 129.27 79.5363 128.358 79.0083 127.71C78.4803 127.05 77.7483 126.72 76.8123 126.72C75.8643 126.72 75.1263 127.05 74.5983 127.71C74.0703 128.358 73.8063 129.27 73.8063 130.446C73.8063 131.646 74.0643 132.564 74.5803 133.2C75.0963 133.836 75.8343 134.154 76.7943 134.154ZM87.5318 125.766C89.7038 125.766 90.7898 126.93 90.7898 129.258V135H89.6918V129.33C89.6918 128.43 89.5058 127.77 89.1338 127.35C88.7738 126.93 88.2038 126.72 87.4238 126.72C86.5238 126.72 85.7978 126.996 85.2458 127.548C84.6938 128.1 84.4178 128.844 84.4178 129.78V135H83.3378V128.484C83.3378 127.548 83.2898 126.714 83.1938 125.982H84.2378L84.3818 127.638C84.6578 127.026 85.0718 126.564 85.6238 126.252C86.1758 125.928 86.8118 125.766 87.5318 125.766ZM94.32 130.356V130.41C94.32 131.622 94.596 132.552 95.148 133.2C95.712 133.836 96.528 134.154 97.596 134.154C98.676 134.154 99.666 133.782 100.566 133.038L100.998 133.902C100.602 134.274 100.098 134.574 99.486 134.802C98.874 135.018 98.244 135.126 97.596 135.126C96.228 135.126 95.148 134.712 94.356 133.884C93.564 133.056 93.168 131.916 93.168 130.464C93.168 129.54 93.342 128.724 93.69 128.016C94.05 127.296 94.548 126.744 95.184 126.36C95.82 125.964 96.552 125.766 97.38 125.766C98.568 125.766 99.492 126.15 100.152 126.918C100.824 127.686 101.16 128.754 101.16 130.122V130.356H94.32ZM97.38 126.666C96.552 126.666 95.88 126.918 95.364 127.422C94.848 127.914 94.524 128.61 94.392 129.51H100.116C100.044 128.586 99.774 127.884 99.306 127.404C98.838 126.912 98.196 126.666 97.38 126.666Z" fill="white"/>
<path d="M6.592 193.08C5.52533 193.08 4.54933 192.824 3.664 192.312C2.77867 191.8 2.08 191.107 1.568 190.232C1.06667 189.347 0.816 188.365 0.816 187.288C0.816 186.211 1.06667 185.235 1.568 184.36C2.08 183.485 2.77333 182.797 3.648 182.296C4.53333 181.784 5.51467 181.528 6.592 181.528C7.66933 181.528 8.64533 181.784 9.52 182.296C10.4053 182.797 11.0987 183.491 11.6 184.376C12.112 185.251 12.368 186.221 12.368 187.288C12.368 188.365 12.112 189.347 11.6 190.232C11.0987 191.107 10.4053 191.8 9.52 192.312C8.63467 192.824 7.65867 193.08 6.592 193.08ZM6.592 192.44C7.54133 192.44 8.4 192.216 9.168 191.768C9.94667 191.309 10.56 190.691 11.008 189.912C11.456 189.123 11.68 188.248 11.68 187.288C11.68 186.339 11.456 185.475 11.008 184.696C10.56 183.907 9.94667 183.288 9.168 182.84C8.4 182.392 7.54133 182.168 6.592 182.168C5.64267 182.168 4.77867 182.392 4 182.84C3.22133 183.288 2.608 183.907 2.16 184.696C1.712 185.475 1.488 186.339 1.488 187.288C1.488 188.248 1.712 189.123 2.16 189.912C2.608 190.691 3.22133 191.309 4 191.768C4.77867 192.216 5.64267 192.44 6.592 192.44ZM6.688 190.792C5.70667 190.792 4.92267 190.477 4.336 189.848C3.76 189.219 3.472 188.365 3.472 187.288C3.472 186.221 3.76 185.379 4.336 184.76C4.92267 184.131 5.70667 183.816 6.688 183.816C7.12533 183.816 7.55733 183.896 7.984 184.056C8.41067 184.216 8.77867 184.435 9.088 184.712L8.736 185.4C8.39467 185.123 8.05867 184.92 7.728 184.792C7.408 184.664 7.072 184.6 6.72 184.6C5.99467 184.6 5.43467 184.835 5.04 185.304C4.656 185.763 4.464 186.424 4.464 187.288C4.464 188.163 4.656 188.835 5.04 189.304C5.43467 189.773 5.99467 190.008 6.72 190.008C7.08267 190.008 7.424 189.944 7.744 189.816C8.064 189.688 8.39467 189.485 8.736 189.208L9.088 189.896C8.77867 190.173 8.41067 190.392 7.984 190.552C7.55733 190.712 7.12533 190.792 6.688 190.792ZM16.7251 182.472H12.6451V181.608H21.7971V182.472H17.7171V193H16.7251V182.472ZM25.5496 184.792C25.8163 184.792 26.051 184.813 26.2536 184.856L26.2056 185.736C26.003 185.693 25.7576 185.672 25.4696 185.672C24.659 185.672 24.051 185.933 23.6456 186.456C23.251 186.968 23.0536 187.581 23.0536 188.296V193H22.0936V187.208C22.0936 186.376 22.051 185.635 21.9656 184.984H22.8936L23.0216 186.472C23.2243 185.928 23.5496 185.512 23.9976 185.224C24.4563 184.936 24.9736 184.792 25.5496 184.792ZM34.3155 184.984V193H33.3395V191.464C33.1048 191.997 32.7475 192.408 32.2675 192.696C31.7982 192.973 31.2328 193.112 30.5715 193.112C29.8568 193.112 29.2275 192.947 28.6835 192.616C28.1502 192.275 27.7342 191.795 27.4355 191.176C27.1475 190.547 27.0035 189.816 27.0035 188.984C27.0035 188.152 27.1528 187.421 27.4515 186.792C27.7502 186.152 28.1662 185.661 28.6995 185.32C29.2435 184.968 29.8675 184.792 30.5715 184.792C31.2222 184.792 31.7822 184.931 32.2515 185.208C32.7315 185.485 33.0942 185.891 33.3395 186.424V184.984H34.3155ZM30.7155 192.248C31.5475 192.248 32.1928 191.96 32.6515 191.384C33.1102 190.808 33.3395 189.997 33.3395 188.952C33.3395 187.896 33.1102 187.08 32.6515 186.504C32.1928 185.928 31.5422 185.64 30.6995 185.64C29.8568 185.64 29.2008 185.939 28.7315 186.536C28.2622 187.123 28.0275 187.939 28.0275 188.984C28.0275 190.019 28.2622 190.824 28.7315 191.4C29.2008 191.965 29.8622 192.248 30.7155 192.248ZM39.7366 182.04C39.278 182.04 38.926 182.163 38.6806 182.408C38.4353 182.653 38.3126 183.091 38.3126 183.72V184.984H40.3766V185.768H38.3126V193H37.3366V185.768H35.7686V184.984H37.3366V183.544C37.3366 182.744 37.534 182.147 37.9286 181.752C38.3233 181.357 38.8673 181.16 39.5606 181.16C39.8806 181.16 40.2113 181.203 40.5526 181.288V182.168C40.2646 182.083 39.9926 182.04 39.7366 182.04ZM48.878 184.984V193H47.902V191.464C47.6673 191.997 47.31 192.408 46.83 192.696C46.3607 192.973 45.7953 193.112 45.134 193.112C44.4193 193.112 43.79 192.947 43.246 192.616C42.7127 192.275 42.2967 191.795 41.998 191.176C41.71 190.547 41.566 189.816 41.566 188.984C41.566 188.152 41.7153 187.421 42.014 186.792C42.3127 186.152 42.7287 185.661 43.262 185.32C43.806 184.968 44.43 184.792 45.134 184.792C45.7847 184.792 46.3447 184.931 46.814 185.208C47.294 185.485 47.6567 185.891 47.902 186.424V184.984H48.878ZM45.278 192.248C46.11 192.248 46.7553 191.96 47.214 191.384C47.6727 190.808 47.902 189.997 47.902 188.952C47.902 187.896 47.6727 187.08 47.214 186.504C46.7553 185.928 46.1047 185.64 45.262 185.64C44.4193 185.64 43.7633 185.939 43.294 186.536C42.8247 187.123 42.59 187.939 42.59 188.984C42.59 190.019 42.8247 190.824 43.294 191.4C43.7633 191.965 44.4247 192.248 45.278 192.248ZM51.5311 181.224H52.4911V193H51.5311V181.224ZM62.0358 184.984V193.032C62.0358 194.195 61.7478 195.075 61.1718 195.672C60.5958 196.269 59.7478 196.568 58.6278 196.568C57.4331 196.568 56.3931 196.28 55.5078 195.704L55.6998 194.856C56.2224 195.165 56.7024 195.384 57.1398 195.512C57.5771 195.64 58.0784 195.704 58.6438 195.704C59.4438 195.704 60.0464 195.485 60.4518 195.048C60.8678 194.611 61.0758 193.971 61.0758 193.128V191.064C60.8304 191.608 60.4678 192.029 59.9878 192.328C59.5078 192.616 58.9318 192.76 58.2598 192.76C57.5558 192.76 56.9318 192.595 56.3878 192.264C55.8438 191.923 55.4171 191.453 55.1078 190.856C54.8091 190.248 54.6598 189.555 54.6598 188.776C54.6598 187.987 54.8091 187.293 55.1078 186.696C55.4171 186.088 55.8438 185.619 56.3878 185.288C56.9318 184.957 57.5558 184.792 58.2598 184.792C58.9318 184.792 59.5024 184.931 59.9718 185.208C60.4518 185.485 60.8144 185.891 61.0598 186.424V184.984H62.0358ZM58.3878 191.88C59.2198 191.88 59.8704 191.603 60.3398 191.048C60.8198 190.493 61.0598 189.736 61.0598 188.776C61.0598 187.805 60.8198 187.043 60.3398 186.488C59.8704 185.923 59.2198 185.64 58.3878 185.64C57.5451 185.64 56.8838 185.923 56.4038 186.488C55.9238 187.043 55.6838 187.805 55.6838 188.776C55.6838 189.747 55.9238 190.509 56.4038 191.064C56.8838 191.608 57.5451 191.88 58.3878 191.88ZM71.4874 184.984V193H70.5114V191.464C70.2767 191.997 69.9194 192.408 69.4394 192.696C68.97 192.973 68.4047 193.112 67.7434 193.112C67.0287 193.112 66.3994 192.947 65.8554 192.616C65.322 192.275 64.906 191.795 64.6074 191.176C64.3194 190.547 64.1754 189.816 64.1754 188.984C64.1754 188.152 64.3247 187.421 64.6234 186.792C64.922 186.152 65.338 185.661 65.8714 185.32C66.4154 184.968 67.0394 184.792 67.7434 184.792C68.394 184.792 68.954 184.931 69.4234 185.208C69.9034 185.485 70.266 185.891 70.5114 186.424V184.984H71.4874ZM67.8874 192.248C68.7194 192.248 69.3647 191.96 69.8234 191.384C70.282 190.808 70.5114 189.997 70.5114 188.952C70.5114 187.896 70.282 187.08 69.8234 186.504C69.3647 185.928 68.714 185.64 67.8714 185.64C67.0287 185.64 66.3727 185.939 65.9034 186.536C65.434 187.123 65.1994 187.939 65.1994 188.984C65.1994 190.019 65.434 190.824 65.9034 191.4C66.3727 191.965 67.034 192.248 67.8874 192.248ZM77.5965 184.792C77.8632 184.792 78.0978 184.813 78.3005 184.856L78.2525 185.736C78.0498 185.693 77.8045 185.672 77.5165 185.672C76.7058 185.672 76.0978 185.933 75.6925 186.456C75.2978 186.968 75.1005 187.581 75.1005 188.296V193H74.1405V187.208C74.1405 186.376 74.0978 185.635 74.0125 184.984H74.9405L75.0685 186.472C75.2712 185.928 75.5965 185.512 76.0445 185.224C76.5032 184.936 77.0205 184.792 77.5965 184.792ZM83.9408 181.608H88.3248C89.4661 181.608 90.3621 181.885 91.0128 182.44C91.6634 182.995 91.9888 183.757 91.9888 184.728C91.9888 185.709 91.6581 186.483 90.9968 187.048C90.3461 187.603 89.4554 187.88 88.3248 187.88H84.9328V193H83.9408V181.608ZM88.2608 187.016C89.1568 187.016 89.8341 186.819 90.2928 186.424C90.7514 186.029 90.9808 185.464 90.9808 184.728C90.9808 184.003 90.7514 183.443 90.2928 183.048C89.8341 182.653 89.1568 182.456 88.2608 182.456H84.9328V187.016H88.2608ZM96.7251 182.472H92.6451V181.608H101.797V182.472H97.7171V193H96.7251V182.472ZM107.342 188.312V193H106.35V188.28L101.95 181.608H103.102L106.862 187.416L110.622 181.608H111.742L107.342 188.312ZM117.175 181.608H118.167V192.136H124.055V193H117.175V181.608ZM126.569 182.472H122.489V181.608H131.641V182.472H127.561V193H126.569V182.472ZM133.3 181.608H136.964C138.777 181.608 140.175 182.099 141.156 183.08C142.137 184.061 142.628 185.464 142.628 187.288C142.628 189.112 142.132 190.52 141.14 191.512C140.159 192.504 138.767 193 136.964 193H133.3V181.608ZM136.916 192.136C138.463 192.136 139.625 191.731 140.404 190.92C141.183 190.099 141.572 188.888 141.572 187.288C141.572 184.077 140.02 182.472 136.916 182.472H134.292V192.136H136.916ZM156.326 192.136V193H149.142V192.264L153.19 187.736C153.766 187.075 154.182 186.493 154.438 185.992C154.694 185.48 154.822 184.973 154.822 184.472C154.822 183.789 154.625 183.267 154.23 182.904C153.846 182.531 153.292 182.344 152.566 182.344C151.446 182.344 150.353 182.803 149.286 183.72L148.87 182.936C149.318 182.499 149.878 182.147 150.55 181.88C151.222 181.613 151.894 181.48 152.566 181.48C153.58 181.48 154.374 181.747 154.95 182.28C155.537 182.803 155.83 183.517 155.83 184.424C155.83 185.075 155.676 185.709 155.366 186.328C155.068 186.947 154.577 187.635 153.894 188.392L150.47 192.136H156.326ZM162.128 193.128C160.848 193.128 159.872 192.637 159.2 191.656C158.539 190.664 158.208 189.213 158.208 187.304C158.208 185.395 158.539 183.949 159.2 182.968C159.861 181.976 160.837 181.48 162.128 181.48C163.419 181.48 164.395 181.971 165.056 182.952C165.717 183.933 166.048 185.379 166.048 187.288C166.048 189.197 165.712 190.648 165.04 191.64C164.379 192.632 163.408 193.128 162.128 193.128ZM162.128 192.248C163.109 192.248 163.835 191.848 164.304 191.048C164.784 190.237 165.024 188.984 165.024 187.288C165.024 185.592 164.789 184.349 164.32 183.56C163.851 182.76 163.12 182.36 162.128 182.36C161.147 182.36 160.416 182.76 159.936 183.56C159.467 184.36 159.232 185.603 159.232 187.288C159.232 188.973 159.467 190.221 159.936 191.032C160.416 191.843 161.147 192.248 162.128 192.248ZM175.514 192.136V193H168.33V192.264L172.378 187.736C172.954 187.075 173.37 186.493 173.626 185.992C173.882 185.48 174.01 184.973 174.01 184.472C174.01 183.789 173.813 183.267 173.418 182.904C173.034 182.531 172.479 182.344 171.754 182.344C170.634 182.344 169.541 182.803 168.474 183.72L168.058 182.936C168.506 182.499 169.066 182.147 169.738 181.88C170.41 181.613 171.082 181.48 171.754 181.48C172.767 181.48 173.562 181.747 174.138 182.28C174.725 182.803 175.018 183.517 175.018 184.424C175.018 185.075 174.863 185.709 174.554 186.328C174.255 186.947 173.765 187.635 173.082 188.392L169.658 192.136H175.514ZM181.316 193.128C180.036 193.128 179.06 192.637 178.388 191.656C177.726 190.664 177.396 189.213 177.396 187.304C177.396 185.395 177.726 183.949 178.388 182.968C179.049 181.976 180.025 181.48 181.316 181.48C182.606 181.48 183.582 181.971 184.244 182.952C184.905 183.933 185.236 185.379 185.236 187.288C185.236 189.197 184.9 190.648 184.228 191.64C183.566 192.632 182.596 193.128 181.316 193.128ZM181.316 192.248C182.297 192.248 183.022 191.848 183.492 191.048C183.972 190.237 184.212 188.984 184.212 187.288C184.212 185.592 183.977 184.349 183.508 183.56C183.038 182.76 182.308 182.36 181.316 182.36C180.334 182.36 179.604 182.76 179.124 183.56C178.654 184.36 178.42 185.603 178.42 187.288C178.42 188.973 178.654 190.221 179.124 191.032C179.604 191.843 180.334 192.248 181.316 192.248ZM188.573 191.608V193H187.213V191.608H188.573ZM202.63 189.96H196.486L195.174 193H194.15L199.11 181.608H200.006L204.95 193H203.926L202.63 189.96ZM202.246 189.096L199.558 182.808L196.854 189.096H202.246ZM206.687 181.224H207.647V193H206.687V181.224ZM210.328 181.224H211.288V193H210.328V181.224ZM221.503 184.792C221.769 184.792 222.004 184.813 222.207 184.856L222.159 185.736C221.956 185.693 221.711 185.672 221.423 185.672C220.612 185.672 220.004 185.933 219.599 186.456C219.204 186.968 219.007 187.581 219.007 188.296V193H218.047V187.208C218.047 186.376 218.004 185.635 217.919 184.984H218.847L218.975 186.472C219.177 185.928 219.503 185.512 219.951 185.224C220.409 184.936 220.927 184.792 221.503 184.792ZM223.625 184.984H224.585V193H223.625V184.984ZM224.777 181.672V182.92H223.481V181.672H224.777ZM234.13 184.984V193.032C234.13 194.195 233.842 195.075 233.266 195.672C232.69 196.269 231.842 196.568 230.722 196.568C229.527 196.568 228.487 196.28 227.602 195.704L227.794 194.856C228.316 195.165 228.796 195.384 229.234 195.512C229.671 195.64 230.172 195.704 230.738 195.704C231.538 195.704 232.14 195.485 232.546 195.048C232.962 194.611 233.17 193.971 233.17 193.128V191.064C232.924 191.608 232.562 192.029 232.082 192.328C231.602 192.616 231.026 192.76 230.354 192.76C229.65 192.76 229.026 192.595 228.482 192.264C227.938 191.923 227.511 191.453 227.202 190.856C226.903 190.248 226.754 189.555 226.754 188.776C226.754 187.987 226.903 187.293 227.202 186.696C227.511 186.088 227.938 185.619 228.482 185.288C229.026 184.957 229.65 184.792 230.354 184.792C231.026 184.792 231.596 184.931 232.066 185.208C232.546 185.485 232.908 185.891 233.154 186.424V184.984H234.13ZM230.482 191.88C231.314 191.88 231.964 191.603 232.434 191.048C232.914 190.493 233.154 189.736 233.154 188.776C233.154 187.805 232.914 187.043 232.434 186.488C231.964 185.923 231.314 185.64 230.482 185.64C229.639 185.64 228.978 185.923 228.498 186.488C228.018 187.043 227.778 187.805 227.778 188.776C227.778 189.747 228.018 190.509 228.498 191.064C228.978 191.608 229.639 191.88 230.482 191.88ZM240.509 184.792C242.44 184.792 243.405 185.827 243.405 187.896V193H242.429V187.96C242.429 187.16 242.264 186.573 241.933 186.2C241.613 185.827 241.106 185.64 240.413 185.64C239.613 185.64 238.968 185.885 238.477 186.376C237.986 186.867 237.741 187.528 237.741 188.36V193H236.781V181.224H237.741V186.376C237.997 185.853 238.365 185.459 238.845 185.192C239.325 184.925 239.88 184.792 240.509 184.792ZM247.391 185.768V190.536C247.391 191.176 247.514 191.619 247.759 191.864C248.004 192.109 248.367 192.232 248.847 192.232C249.146 192.232 249.434 192.184 249.711 192.088V192.968C249.37 193.053 249.023 193.096 248.671 193.096C247.967 193.096 247.412 192.899 247.007 192.504C246.612 192.109 246.415 191.517 246.415 190.728V185.768H244.831V184.984H246.415V182.856L247.391 182.488V184.984H249.759V185.768H247.391ZM254.03 193.112C252.728 193.112 251.699 192.755 250.942 192.04L251.294 191.288C251.72 191.64 252.147 191.891 252.574 192.04C253.011 192.189 253.512 192.264 254.078 192.264C254.739 192.264 255.24 192.152 255.582 191.928C255.934 191.693 256.11 191.357 256.11 190.92C256.11 190.557 255.992 190.275 255.758 190.072C255.534 189.859 255.16 189.688 254.638 189.56L253.278 189.256C252.638 189.107 252.131 188.84 251.758 188.456C251.395 188.072 251.214 187.624 251.214 187.112C251.214 186.408 251.48 185.848 252.014 185.432C252.558 185.005 253.278 184.792 254.174 184.792C254.739 184.792 255.262 184.883 255.742 185.064C256.232 185.245 256.638 185.507 256.958 185.848L256.59 186.6C255.854 185.96 255.048 185.64 254.174 185.64C253.555 185.64 253.075 185.763 252.734 186.008C252.392 186.253 252.222 186.595 252.222 187.032C252.222 187.395 252.328 187.688 252.542 187.912C252.766 188.136 253.107 188.301 253.566 188.408L254.942 188.744C256.382 189.064 257.102 189.773 257.102 190.872C257.102 191.544 256.824 192.088 256.27 192.504C255.715 192.909 254.968 193.112 254.03 193.112ZM266.862 184.792C267.129 184.792 267.363 184.813 267.566 184.856L267.518 185.736C267.315 185.693 267.07 185.672 266.782 185.672C265.971 185.672 265.363 185.933 264.958 186.456C264.563 186.968 264.366 187.581 264.366 188.296V193H263.406V187.208C263.406 186.376 263.363 185.635 263.278 184.984H264.206L264.334 186.472C264.537 185.928 264.862 185.512 265.31 185.224C265.769 184.936 266.286 184.792 266.862 184.792ZM269.34 188.872V188.92C269.34 189.997 269.585 190.824 270.076 191.4C270.577 191.965 271.303 192.248 272.252 192.248C273.212 192.248 274.092 191.917 274.892 191.256L275.276 192.024C274.924 192.355 274.476 192.621 273.932 192.824C273.388 193.016 272.828 193.112 272.252 193.112C271.036 193.112 270.076 192.744 269.372 192.008C268.668 191.272 268.316 190.259 268.316 188.968C268.316 188.147 268.471 187.421 268.78 186.792C269.1 186.152 269.543 185.661 270.108 185.32C270.673 184.968 271.324 184.792 272.06 184.792C273.116 184.792 273.937 185.133 274.524 185.816C275.121 186.499 275.42 187.448 275.42 188.664V188.872H269.34ZM272.06 185.592C271.324 185.592 270.727 185.816 270.268 186.264C269.809 186.701 269.521 187.32 269.404 188.12H274.492C274.428 187.299 274.188 186.675 273.772 186.248C273.356 185.811 272.785 185.592 272.06 185.592ZM280.124 193.112C278.822 193.112 277.793 192.755 277.036 192.04L277.388 191.288C277.814 191.64 278.241 191.891 278.668 192.04C279.105 192.189 279.606 192.264 280.172 192.264C280.833 192.264 281.334 192.152 281.676 191.928C282.028 191.693 282.204 191.357 282.204 190.92C282.204 190.557 282.086 190.275 281.852 190.072C281.628 189.859 281.254 189.688 280.732 189.56L279.372 189.256C278.732 189.107 278.225 188.84 277.852 188.456C277.489 188.072 277.308 187.624 277.308 187.112C277.308 186.408 277.574 185.848 278.108 185.432C278.652 185.005 279.372 184.792 280.268 184.792C280.833 184.792 281.356 184.883 281.836 185.064C282.326 185.245 282.732 185.507 283.052 185.848L282.684 186.6C281.948 185.96 281.142 185.64 280.268 185.64C279.649 185.64 279.169 185.763 278.828 186.008C278.486 186.253 278.316 186.595 278.316 187.032C278.316 187.395 278.422 187.688 278.636 187.912C278.86 188.136 279.201 188.301 279.66 188.408L281.036 188.744C282.476 189.064 283.196 189.773 283.196 190.872C283.196 191.544 282.918 192.088 282.364 192.504C281.809 192.909 281.062 193.112 280.124 193.112ZM285.934 188.872V188.92C285.934 189.997 286.179 190.824 286.67 191.4C287.171 191.965 287.896 192.248 288.846 192.248C289.806 192.248 290.686 191.917 291.486 191.256L291.87 192.024C291.518 192.355 291.07 192.621 290.526 192.824C289.982 193.016 289.422 193.112 288.846 193.112C287.63 193.112 286.67 192.744 285.966 192.008C285.262 191.272 284.91 190.259 284.91 188.968C284.91 188.147 285.064 187.421 285.374 186.792C285.694 186.152 286.136 185.661 286.702 185.32C287.267 184.968 287.918 184.792 288.654 184.792C289.71 184.792 290.531 185.133 291.118 185.816C291.715 186.499 292.014 187.448 292.014 188.664V188.872H285.934ZM288.654 185.592C287.918 185.592 287.32 185.816 286.862 186.264C286.403 186.701 286.115 187.32 285.998 188.12H291.086C291.022 187.299 290.782 186.675 290.366 186.248C289.95 185.811 289.379 185.592 288.654 185.592ZM297.565 184.792C297.832 184.792 298.067 184.813 298.269 184.856L298.221 185.736C298.019 185.693 297.773 185.672 297.485 185.672C296.675 185.672 296.067 185.933 295.661 186.456C295.267 186.968 295.069 187.581 295.069 188.296V193H294.109V187.208C294.109 186.376 294.067 185.635 293.981 184.984H294.909L295.037 186.472C295.24 185.928 295.565 185.512 296.013 185.224C296.472 184.936 296.989 184.792 297.565 184.792ZM306.972 184.984L303.532 193H302.524L299.132 184.984H300.172L303.068 192.024L305.98 184.984H306.972ZM309.012 188.872V188.92C309.012 189.997 309.257 190.824 309.748 191.4C310.249 191.965 310.975 192.248 311.924 192.248C312.884 192.248 313.764 191.917 314.564 191.256L314.948 192.024C314.596 192.355 314.148 192.621 313.604 192.824C313.06 193.016 312.5 193.112 311.924 193.112C310.708 193.112 309.748 192.744 309.044 192.008C308.34 191.272 307.988 190.259 307.988 188.968C307.988 188.147 308.143 187.421 308.452 186.792C308.772 186.152 309.215 185.661 309.78 185.32C310.345 184.968 310.996 184.792 311.732 184.792C312.788 184.792 313.609 185.133 314.196 185.816C314.793 186.499 315.092 187.448 315.092 188.664V188.872H309.012ZM311.732 185.592C310.996 185.592 310.399 185.816 309.94 186.264C309.481 186.701 309.193 187.32 309.076 188.12H314.164C314.1 187.299 313.86 186.675 313.444 186.248C313.028 185.811 312.457 185.592 311.732 185.592ZM323.987 181.224V193H323.011V191.464C322.777 191.997 322.419 192.408 321.939 192.696C321.47 192.973 320.905 193.112 320.243 193.112C319.539 193.112 318.915 192.941 318.371 192.6C317.838 192.248 317.422 191.757 317.123 191.128C316.825 190.488 316.675 189.752 316.675 188.92C316.675 188.088 316.819 187.363 317.107 186.744C317.406 186.115 317.822 185.635 318.355 185.304C318.899 184.963 319.529 184.792 320.243 184.792C320.894 184.792 321.454 184.931 321.923 185.208C322.403 185.485 322.766 185.891 323.011 186.424V181.224H323.987ZM320.371 192.248C321.214 192.248 321.865 191.96 322.323 191.384C322.782 190.808 323.011 189.997 323.011 188.952C323.011 187.907 322.782 187.096 322.323 186.52C321.865 185.933 321.219 185.64 320.387 185.64C319.534 185.64 318.873 185.928 318.403 186.504C317.934 187.08 317.699 187.885 317.699 188.92C317.699 189.965 317.934 190.781 318.403 191.368C318.873 191.955 319.529 192.248 320.371 192.248Z" fill="white"/>
</svg>
